ply
format ascii 1.0
element vertex 85
property float x
property float y
property float z
property float i
element edge 84
property int vertex1
property int vertex2
end_header

142959.656 485736.562 2.34 16 
142960.219 485735.812 1.85 24 
142961.453 485735.281 0.73 35 
142957.297 485734.5 11.42 43 
142962.078 485736.5 13.82 74 
142960.875 485739.688 14.72 151 
142961.828 485738.156 15.15 158 
142961.219 485737.938 14.62 159 
142959.281 485736.219 10.12 175 
142961.719 485734.75 4.61 229 
142960.984 485739.438 13.99 374 
142959.016 485737.969 3.47 385 
142960.438 485738.906 10.72 402 
142958.281 485736.75 2.51 458 
142961.719 485739.125 6.43 468 
142957.969 485736.188 3.24 493 
142958.797 485736.438 2.57 528 
142961.328 485738.125 14.53 541 
142960.047 485736.719 13.67 589 
142961.609 485737.594 12.13 615 
142961.406 485737.469 11.5 618 
142961.219 485737.312 10.9 619 
142961.281 485737.5 0.54 625 
142961.344 485737 10.81 657 
142959.484 485735.625 1.93 674 
142958 485734.344 9.88 680 
142962.375 485737.625 12.15 688 
142962.016 485737.438 1.66 694 
142962.312 485737.156 5.42 727 
142960.75 485735.875 9.45 736 
142961.562 485736.219 8.05 768 
142961.688 485736.406 0.97 770 
142961.719 485735.938 7.39 801 
142960.141 485734.688 7.13 813 
142960.281 485734.906 -1.04 814 
142961.703 485735.75 7.07 838 
142961.234 485735.438 2.53 843 
142961.234 485734.938 0.14 884 
142962.078 485735.219 7.84 919 
142961.766 485735.031 4.78 922 
142961.469 485734.844 1.27 927 
142962.594 485735.219 8.22 958 
142961.609 485734.469 5.26 971 
142961.453 485734.375 3.47 974 
142961.578 485734.219 9.94 1016 
142959.391 485732.406 13.41 1035 
142962.797 485733.812 7.3 1213 
142960.812 485732.281 5.59 1228 
142963.25 485733.656 8.52 1253 
142961.766 485732.219 2.95 1312 
142960.094 485730.406 7.25 1375 
142964.203 485733 9.08 1438 
142964.375 485732.75 15.27 1473 
142964.156 485732.625 11 1478 
142962.266 485731.25 2.65 1495 
142964.891 485732.5 12.23 1549 
142965.281 485732.906 4.56 1551 
142963.844 485731.688 10.47 1557 
142965.219 485732.25 15.38 1581 
142965.328 485732.344 13.58 1582 
142960.969 485735.438 -4.51 1731 
142961.078 485734.844 -1.8 1737 
142960.594 485735.625 -1.33 1740 
142960.406 485735.719 0.26 1741 
142960.938 485735.281 0.765 1742 
142961.328 485735 2.688 1743 
142959.859 485734.531 7.245 1744 
142960.781 485735.25 7.318 1745 
142961.188 485734.719 8.629 1746 
142961.891 485734.969 8.424 1747 
142961.812 485736.094 4.054 1748 
142961.078 485735.5 2.089 1749 
142964.688 485732.719 11.052 1750 
142964.516 485732.812 10.334 1751 
142961.453 485734.719 4.978 1752 
142959.188 485734.469 8.177 1753 
142961.406 485738.188 12.723 1754 
142961.156 485735.562 9.082 1755 
142960.953 485733.031 4.784 1756 
142961.734 485735.906 3.835 1757 
142962.016 485736.406 11.427 1758 
142961.984 485736.375 10.389 1759 
142961.953 485736.312 9.15 1760 
142961.859 485736.156 5.506 1761 
142961.844 485736.125 5.077 1762 

37 2
17 7
16 13
21 20
23 21
19 26
32 30
61 34
32 38
9 39
10 5
16 15
0 16
17 6
1 24
28 35
2 31
42 33
46 48
48 51
25 3
59 52
0 11
19 17
30 12
28 14
23 18
29 8
31 22
1 0
36 43
44 45
39 46
47 50
53 55
2 56
46 57
55 58
51 53
18 19
30 23
60 37
60 62
62 27
62 63
63 1
63 64
64 40
64 65
65 9
65 42
66 67
67 32
67 68
68 44
68 69
69 41
70 28
60 61
63 71
71 36
40 49
40 54
72 59
51 73
73 72
9 74
74 66
66 75
75 25
19 76
76 10
69 77
77 29
65 78
78 47
65 79
79 70
80 4
81 80
82 81
83 82
70 84
84 83
