ply
format ascii 1.0
element vertex 228
property float x
property float y
property float z
element edge 227
property int vertex1
property int vertex2
end_header

142849.25 485926.531 6.563 
142849.797 485926.812 7.266 
142849.641 485924.969 5.149 
142847.656 485920.688 12.425 
142850.344 485925.875 7.864 
142850.641 485926.281 5.469 
142848.922 485922.312 8.633 
142850.438 485925.125 4.521 
142850.719 485925.562 8.607 
142849.438 485922.812 12.012 
142847.875 485918.312 5.93 
142849.656 485920.875 9.949 
142847.875 485915.688 8.219 
142852.172 485925.438 14.735 
142852.422 485925.875 13.79 
142848.812 485917.438 11.07 
142849.094 485917.938 10.04 
142852.594 485925.719 13.734 
142850.547 485921.156 15.44 
142853.344 485926.781 12.182 
142849.453 485917.75 9.773 
142852.281 485924 12.422 
142848.109 485914.469 13.211 
142852.734 485923.938 9.563 
142853.406 485924.75 9.486 
142849.562 485916 6.435 
142849.656 485916.219 6.316 
142851.906 485921.969 16.762 
142853.188 485924.188 11.7 
142854.219 485926.375 11.661 
142855.188 485928.25 10.022 
142853.625 485924.688 12.646 
142855.312 485927.938 9.957 
142850.953 485918.656 16.326 
142851.719 485919.031 3.605 
142853.781 485924.312 12.638 
142850.766 485917.656 15.329 
142853.25 485922.219 8.115 
142852.609 485919.531 3.284 
142852.672 485919.812 4.98 
142852.922 485920.281 4.314 
142853.047 485920.5 4.04 
142853.312 485920.938 2.368 
142854.391 485923.469 5.077 
142856.016 485927.312 9.487 
142849.75 485913.344 9.948 
142850.406 485915.156 14.549 
142851.094 485916.156 9.603 
142856.25 485927.5 13.734 
142850.062 485913.375 9.693 
142850.891 485915.688 15.478 
142851.297 485915.969 9.574 
142852.766 485918.438 2.672 
142853.484 485920.219 5.669 
142856.141 485926.594 13.271 
142851.016 485915.031 10.154 
142854.484 485922.406 9.929 
142855.766 485925.031 8.865 
142855.969 485925.531 9.626 
142856.219 485926.25 11.62 
142851.844 485915.812 5.796 
142852.625 485917.25 3.653 
142851.109 485914.031 10.096 
142852.188 485915.875 5.474 
142854.141 485920.125 6.677 
142851.578 485914.094 8.713 
142851.594 485914.438 11.768 
142857.359 485926.594 11.261 
142851.781 485913.969 9.101 
142854.297 485919.219 8.229 
142854.906 485920 3.133 
142856.406 485923.156 2.726 
142856.969 485925.031 9.804 
142856.891 485923.438 2.893 
142851.734 485912.688 11.661 
142857.719 485924.719 4.424 
142858.344 485926.781 12.213 
142851.781 485912.469 12.259 
142852.781 485914.625 12.54 
142853.234 485914.812 4.668 
142855.641 485919.906 4.364 
142856.344 485922.312 13.834 
142857.766 485924.406 4.206 
142857.859 485924.688 5.181 
142857.984 485925.531 10.871 
142854.125 485916.344 7.185 
142858.031 485924.375 4.507 
142856.891 485922.125 13.143 
142853.656 485913.969 5.213 
142854.469 485916.469 12.794 
142854.844 485916.5 8.026 
142853.625 485913.219 6.316 
142854.266 485915.312 14.075 
142856.984 485920.375 6.814 
142855.234 485916.531 12.696 
142857.906 485921.594 6.669 
142859.25 485924.188 3.813 
142859.5 485924.125 4.08 
142854.297 485913.156 8.26 
142856.953 485918.312 3.571 
142855.719 485916.094 14.327 
142860.219 485924.625 4.003 
142858.203 485920.062 7.953 
142858.266 485920.375 10.057 
142859.172 485922.188 8.839 
142859.766 485923.031 10.243 
142858.938 485921.125 12.042 
142859.172 485921.688 12.742 
142860.031 485923.25 10.348 
142857.812 485917.75 7.513 
142857.922 485917.938 7.365 
142859.438 485921.719 13.005 
142857.891 485917.219 7.913 
142856.938 485914.844 10.665 
142858.734 485918.719 11.082 
142858.906 485918.875 12.042 
142859.016 485919.094 11.908 
142857.281 485914.812 11.797 
142858.359 485915.062 7.782 
142859.078 485916.812 9.928 
142859.172 485916.438 9.897 
142859.266 485916.719 10.528 
142860.547 485919.875 15.382 
142859.719 485916.406 10.941 
142847.766 485923 9.935 
142847.984 485923 9.673 
142847.984 485922.719 10.003 
142849.109 485913 10.274 
142848.766 485922.625 12.719 
142848.906 485922.531 8.825 
142848.875 485920.531 12.557 
142849.062 485921.094 11.314 
142849.109 485920.781 10.732 
142849.281 485917.312 10.741 
142850.438 485915.75 10.854 
142850.344 485914.875 15.312 
142850.516 485924.906 4.59 
142850.516 485916.688 15.685 
142850.516 485916.438 16.106 
142851.156 485915.438 9.801 
142851.172 485914.938 9.944 
142851.203 485912.625 12.246 
142851.172 485924.562 3.896 
142851.375 485916.5 9.222 
142851.516 485914.625 8.14 
142851.484 485914.156 9.644 
142851.703 485915.219 7.281 
142851.562 485914.094 12.343 
142851.406 485918.781 16.99 
142851.938 485915.312 6.909 
142851.938 485914.844 7.855 
142852.125 485919.156 6.076 
142852.281 485914.719 7.94 
142852.344 485920.875 4.99 
142852.375 485914.719 12.437 
142852.078 485921.938 16.901 
142852.094 485921.688 16.738 
142852.688 485919.688 3.259 
142852.828 485916.25 3.878 
142852.969 485920.906 1.619 
142853.031 485920.312 0.727 
142853.047 485918.781 2.322 
142853.047 485918.5 2.654 
142852.797 485915.625 13.233 
142853.172 485914.125 5.282 
142852.703 485925.125 13.102 
142852.719 485924.625 13.408 
142853.031 485920.562 10.444 
142853.406 485919.781 1.297 
142853.016 485918.5 13.843 
142853.562 485912.812 6.49 
142853.031 485924.469 12.222 
142853.125 485924.406 9.83 
142853.219 485923.312 8.767 
142853.734 485912.812 8.68 
142853.219 485925.375 10.938 
142853.188 485924.688 12.493 
142853.219 485924.375 12.056 
142853.625 485915.25 13.268 
142853.828 485914.562 8.837 
142853.469 485924.25 12.489 
142853.859 485920.531 7.046 
142853.891 485915.406 13.198 
142854.359 485921.469 1.515 
142854.609 485913.531 5.28 
142854.422 485923.25 4.738 
142854.656 485916.219 13.356 
142854.922 485915.812 14.552 
142855.188 485925.469 11.239 
142855.234 485925.094 15.466 
142855.406 485924.688 11.309 
142855.547 485924.594 7.566 
142855.656 485926.812 9 
142855.812 485926.781 14.011 
142855.875 485926.469 12.479 
142855.969 485925.906 10.582 
142856.406 485923.062 2.513 
142856.812 485914.875 10.256 
142856.812 485914.625 10.29 
142856.312 485927 12.881 
142856.984 485913.781 11.925 
142857.078 485926.312 10.809 
142857.156 485925.219 10.034 
142857.484 485920.906 7.042 
142857.484 485920.125 8.101 
142857.375 485917.938 14.131 
142857.641 485922.719 12.671 
142857.891 485920 9.469 
142858.062 485918.094 7.567 
142857.828 485925.312 10.983 
142858.078 485924.875 4.814 
142858.078 485918.031 14.334 
142858.391 485925.094 5.214 
142858.438 485920.469 10.498 
142858.375 485925.344 11.791 
142858.625 485925.188 5.397 
142858.703 485919.312 10.957 
142858.891 485924.25 4.536 
142858.859 485921.969 8.644 
142859.078 485916.719 9.762 
142859.391 485926.875 5.843 
142859.609 485923.906 4.064 
142859.375 485922.031 13.003 
142859.531 485918.594 13.244 
142859.859 485924.125 4.265 
142860.125 485923.312 10.954 
142860.25 485920.875 10.687 
142853.422 485921.156 -3.612 

136 7
17 14
26 25
32 30
180 35
161 38
41 40
185 43
49 45
51 47
162 52
140 55
196 71
82 75
209 84
182 92
96 97
204 102
110 109
197 113
116 115
219 119
119 121
125 124
125 126
6 129
132 131
50 137
50 138
68 145
149 146
150 152
27 155
27 156
38 157
161 162
165 166
177 171
23 172
171 176
177 180
64 181
178 182
195 188
197 198
72 202
110 208
103 213
212 215
97 221
28 177
180 31
159 42
46 135
39 53
55 134
140 139
66 147
154 78
79 164
89 94
91 170
93 203
20 133
1 4
65 49
145 140
145 62
51 143
74 141
33 148
150 144
65 68
63 60
60 149
149 150
52 39
160 168
42 41
37 173
172 175
89 186
54 193
59 194
199 54
196 73
113 117
206 87
109 112
210 83
203 95
86 210
207 103
209 214
207 216
219 120
218 104
97 224
107 111
105 108
105 225
6 125
4 8
132 3
142 136
11 132
165 17
171 165
23 24
29 19
41 153
137 36
160 159
46 50
139 51
191 192
199 48
168 161
57 58
181 56
61 158
201 67
144 65
154 163
72 209
78 178
210 212
98 174
203 218
107 222
223 211
109 219
119 123
131 130
10 11
133 15
131 128
20 16
26 12
134 22
11 9
49 127
5 0
136 2
138 33
5 1
139 46
142 5
55 66
34 10
34 26
153 6
151 20
66 154
68 74
74 77
38 34
61 63
159 142
167 18
39 151
166 27
28 21
173 23
162 61
158 79
17 13
79 88
88 91
37 28
153 37
181 167
63 85
160 183
53 64
178 89
98 179
88 184
42 185
64 69
91 98
186 169
85 90
32 29
168 70
186 187
70 80
188 190
185 191
94 100
192 32
193 189
191 57
183 196
192 44
195 59
58 195
58 201
57 72
87 81
70 99
59 199
80 93
113 200
93 204
80 110
118 197
73 82
211 205
82 86
204 207
201 76
86 217
112 118
212 220
73 96
216 114
213 106
216 116
107 206
106 107
218 105
116 223
96 101
103 226
106 122
227 160
