ply
format ascii 1.0
element vertex 116
property float x
property float y
property float z
element edge 115
property int vertex1
property int vertex2
end_header

142852.266 485921.438 4.5 
142853.234 485920.844 3.9 
142855.766 485925.438 10.48 
142850.75 485918.781 12.65 
142850.812 485918.344 15.56 
142851.062 485918.938 16.75 
142850.672 485913.094 13.02 
142851.516 485914.094 13.68 
142858.469 485918.625 11.55 
142856.359 485922.812 7.48 
142851.094 485918.781 7.53 
142851.656 485918.594 6.73 
142851.047 485915.75 14.19 
142853.25 485920.5 1.39 
142849.984 485914.625 12.88 
142855.359 485920 4.23 
142858.406 485917.75 8.98 
142857.656 485916.375 9.03 
142854.938 485913.094 5.37 
142849.406 485923.062 10.06 
142849.172 485922.906 10.11 
142851.016 485923.812 3.51 
142853.406 485925.312 10.48 
142852.719 485924.281 13.52 
142848.156 485920.938 12.09 
142853.391 485923.906 11.03 
142850.422 485921.781 6.71 
142853.266 485923.062 8.66 
142852.828 485920.469 -3.71 
142854.953 485924.031 5.83 
142851.812 485921.75 3.44 
142851.375 485921.406 5.92 
142857.828 485924.844 4.7 
142853.594 485921.75 6.8 
142857.031 485923.906 3.27 
142853.625 485921.438 0.68 
142853.016 485920.969 2.51 
142855.984 485922.75 2.22 
142854.641 485921.625 15.42 
142854.031 485921.25 8.59 
142853.656 485921 7.07 
142853.312 485920.75 5.61 
142850.656 485918.719 15.96 
142850.531 485918.625 14.32 
142858.203 485924.094 3.99 
142855.125 485921.75 15.09 
142852.875 485920.188 4.82 
142850.578 485918.406 13.5 
142850.469 485918.375 8.49 
142849.625 485917.75 10.3 
142856.312 485922.094 13.07 
142853.109 485919.812 3.04 
142856.484 485921.844 12.35 
142856.125 485921.562 13.93 
142854.266 485920.281 2.04 
142853.312 485919.594 1.7 
142853.062 485919.406 1.93 
142851.469 485918.188 7.36 
142850.734 485917.656 7.72 
142854.188 485919.5 8.3 
142856.922 485920.969 12.4 
142856.281 485920.531 5.9 
142853.172 485918.281 2.95 
142856.547 485920.312 6.38 
142859.125 485921.719 12.93 
142857.734 485920.688 10.17 
142856.875 485920.094 6.21 
142851.328 485916 10.61 
142857.906 485920.594 9.41 
142857.734 485920.469 8.63 
142852.625 485916.781 3.96 
142852.062 485916.312 5.27 
142851.516 485915.938 6.2 
142853.844 485917.156 3.37 
142858.094 485919.875 9.9 
142851.547 485915.031 12.51 
142850.656 485914.375 11.84 
142858.75 485919.656 7.23 
142858.984 485919.281 12.89 
142858.938 485918.906 13.46 
142857.812 485918.125 7.37 
142858.938 485918.469 11.09 
142858.031 485917.844 7.85 
142858.25 485917.781 7.24 
142857.172 485916.438 9.01 
142856.984 485915.906 9.39 
142854.688 485913.594 5.56 
142859.219 485916.375 10.7 
142851.812 485918.344 5.72 
142852.922 485919.781 7.155 
142858.516 485917.25 9.035 
142852.203 485923.875 7.27 
142853.109 485919.875 3.086 
142853.031 485918.281 3.242 
142850.094 485918.094 9.316 
142852.984 485919.875 7.225 
142852.062 485916.312 5.27 
142851.547 485915.031 12.51 
142851.547 485915.031 12.51 
142851.547 485915.031 12.51 
142851.547 485915.031 12.51 
142851.547 485915.031 12.51 
142851.547 485915.031 12.51 
142853.484 485915.438 4.631 
142852.891 485916.375 4.162 
142854.781 485919.906 3.504 
142858.922 485916.75 9.987 
142858.891 485916.781 9.906 
142858.828 485921.438 12.081 
142856.281 485920.531 5.9 
142852.641 485923.875 8.643 
142852.203 485923.875 7.27 
142852.203 485923.875 7.27 
142854.719 485924.969 9.541 
142854.25 485924.75 9.119 
142852.703 485924.094 7.725 

81 8
19 20
13 36
45 38
33 40
47 43
3 47
56 51
60 52
50 53
55 56
61 63
68 65
78 79
80 83
17 84
84 85
11 10
52 50
31 26
30 0
36 30
0 31
42 5
4 42
43 4
13 54
49 3
11 57
57 58
56 62
69 74
76 14
86 18
33 27
46 11
41 33
69 68
26 19
25 23
27 22
36 29
13 21
37 34
1 46
10 24
53 45
41 59
63 9
62 73
57 67
65 60
63 69
75 12
67 76
66 77
76 7
8 78
72 6
16 81
82 16
82 17
34 44
34 32
13 55
13 35
88 48
88 89
89 41
80 90
90 82
21 91
28 13
51 92
92 1
62 93
93 88
48 94
94 49
89 95
95 39
62 70
70 96
96 71
71 72
97 75
98 97
99 98
100 99
101 100
6 102
102 101
103 86
70 104
104 103
55 105
105 15
15 66
15 80
106 87
90 107
107 106
68 108
108 64
15 109
109 61
35 37
110 25
111 110
91 112
112 111
113 2
114 113
91 115
115 114
