ply
format ascii 1.0
element vertex 191
property float x
property float y
property float z
property float i
element edge 190
property int vertex1
property int vertex2
end_header

142907.109 485827.562 3.213 593 
142907.016 485827.5 11.297 665 
142908.062 485828.125 1.967 762 
142907.453 485827.469 11.302 826 
142908.469 485829.594 11.249 845 
142909.969 485832 4.024 861 
142905.828 485823.25 9.462 886 
142907.188 485826.156 9.859 902 
142906.469 485823.875 8.991 971 
142908.531 485828.75 14.16 998 
142910.484 485831.906 4.615 1027 
142907.062 485824.344 9.838 1157 
142910.609 485831.219 4.332 1205 
142910.969 485831.312 4.159 1288 
142907.469 485824.406 15.39 1333 
142911.609 485831.469 5.242 1505 
142907.094 485822.156 11.364 1551 
142907.219 485822.375 10.921 1554 
142909.938 485828.625 16.077 1601 
142907.453 485822.25 10.549 1668 
142908.781 485824.531 5.429 1698 
142908.781 485824.094 1.425 1699 
142911.078 485829.156 3.451 1731 
142906.812 485820.25 10.883 1782 
142909.766 485827.094 16.992 1836 
142910.234 485827.094 7.569 1842 
142911.234 485828.781 3.311 1859 
142909.078 485824.844 14.27 1929 
142911.016 485827.562 1.212 1960 
142909.156 485824 7.122 2048 
142909.266 485824.219 6.949 2050 
142910.75 485826.531 -0.944 2075 
142910.875 485826.812 -0.607 2077 
142908.766 485823.719 17.608 2149 
142910.125 485825.219 4.9 2176 
142910.594 485827.125 13.533 2185 
142909.141 485822.688 7.979 2281 
142909.969 485825.562 18.44 2292 
142910.406 485825.062 4.937 2303 
142910.531 485825.25 4.611 2305 
142910.641 485826.656 15.53 2306 
142910.766 485825.688 3.977 2309 
142910.875 485827.062 14.699 2311 
142910.875 485826.875 12.982 2312 
142911.109 485826.312 2.98 2319 
142911.234 485827.781 14.193 2320 
142912.359 485829.5 8.323 2339 
142908.031 485819.969 9.238 2381 
142910.938 485826.688 15.158 2425 
142911.172 485827 13.402 2429 
142911.156 485825.562 -0.165 2431 
142911.375 485826.531 4.81 2437 
142912.516 485829.469 9.981 2451 
142911.406 485826.781 10.825 2550 
142911.969 485827 1.628 2559 
142912.766 485829.656 10.85 2568 
142908.781 485820.625 10.976 2621 
142909.719 485823.156 16.057 2638 
142909.828 485823.375 15.897 2641 
142910.141 485822.875 4.829 2648 
142910.375 485824.625 16.897 2650 
142909.984 485822.562 12.358 2754 
142911.016 485824.688 12.077 2770 
142911.453 485825.344 9.335 2778 
142909.062 485820.062 12.055 2846 
142911.516 485825 9.92 2880 
142910.984 485824.125 15.247 2977 
142911.188 485824.375 13.161 2980 
142912.453 485827.031 13.315 2994 
142912.781 485826.719 3.53 3002 
142911.469 485824 15.843 3182 
142912.297 485824.062 5.733 3299 
142913.219 485827.094 16.023 3308 
142912.672 485825.062 11.646 3406 
142913.5 485826.438 8.063 3418 
142912 485823.125 12.633 3501 
142912.219 485823.031 7.289 3505 
142913.594 485826.469 12.623 3521 
142914.484 485827.531 4.801 3538 
142910.469 485819.156 12.897 3577 
142910.906 485820 11.981 3584 
142911.484 485821.406 13.955 3595 
142911.594 485821.656 13.837 3597 
142911.609 485821.156 13.788 3699 
142911.188 485819.719 11.379 3813 
142914.016 485825.406 8.808 3850 
142911.609 485820.031 11.007 3926 
142912.062 485820.938 10.408 3936 
142912.844 485822.469 9.326 3950 
142914.344 485825.594 9.015 3969 
142911.766 485819.719 11.825 4029 
142913.141 485822.406 9.928 4051 
142912.375 485820.281 10.869 4120 
142912.594 485820.5 8.208 4125 
142912.719 485819.531 6.219 4308 
142914.469 485823.906 12.869 4328 
142913.938 485821.125 9.722 4482 
142914.047 485821.656 12.126 4483 
142913.75 485820.25 13.124 4649 
142915.406 485823.594 11.847 4666 
142915.766 485824.281 11.273 4668 
142914.688 485821.75 14.774 4731 
142914.688 485821.281 10.451 4732 
142914.891 485821.625 14.867 4813 
142915.703 485823.094 12.403 4824 
142905.484 485823.906 9.362 6178 
142907.094 485821.5 12.557 6714 
142907.453 485821.312 10.432 6821 
142907.531 485823.375 11.685 6905 
142907.562 485827.656 11.165 6981 
142908.453 485823.562 1.875 7094 
142907.922 485828.375 14.909 7169 
142908.484 485819.688 11.649 7221 
142908.797 485824.094 1.433 7287 
142908.266 485830.844 13.264 7347 
142908.375 485828.906 12.985 7362 
142908.812 485829.25 10.922 7454 
142908.797 485826.719 14.949 7470 
142909.203 485824.281 7.237 7481 
142909.516 485824.25 6.694 7575 
142909.219 485824.5 14.158 7579 
142909.438 485827.906 9.742 7651 
142909.719 485825.625 5.613 7664 
142910.219 485824.75 0.261 7765 
142910.438 485827.562 -0.021 7846 
142909.844 485827.844 15.161 7855 
142910.578 485829.062 3.545 8029 
142910.688 485828.344 1.649 8031 
142910.344 485823.125 18.023 8071 
142910.828 485829.344 3.648 8117 
142910.969 485828.031 1.442 8121 
142910.672 485824.094 14.894 8162 
142910.953 485819.906 12.958 8187 
142910.969 485819.875 12.574 8188 
142911.062 485830.938 4.212 8213 
142911.062 485830.688 4.334 8215 
142911.344 485826.719 2.472 8235 
142911.266 485826.438 4.845 8240 
142910.969 485823.875 16.159 8265 
142911.297 485820.125 12.697 8285 
142911.516 485829.312 1.891 8332 
142911.641 485826.688 2.374 8342 
142911.422 485822.562 13.518 8386 
142911.578 485819.844 12.965 8405 
142911.719 485827.156 5.284 8464 
142911.5 485826.562 12.141 8479 
142911.656 485825.25 9.462 8490 
142911.656 485823.656 11.971 8501 
142911.75 485820.188 13.927 8532 
142911.859 485828.281 7.293 8587 
142912.047 485826.469 4.764 8595 
142912.141 485824.156 5.432 8610 
142912.141 485823.938 5.808 8611 
142912.469 485827.281 2.008 8700 
142912.594 485826.062 0.479 8705 
142912.188 485825.844 11.221 8715 
142912.234 485825.281 10.608 8719 
142912.453 485822.625 8.499 8735 
142912.688 485826.625 3.352 8832 
142912.297 485826.625 13.645 8839 
142912.422 485826.312 10.945 8840 
142912.797 485820.938 8.082 8869 
142912.531 485828.562 8.677 8937 
142912.422 485826.719 13.748 8948 
142912.547 485825.719 11.993 8954 
142912.984 485819.5 8.889 8986 
142912.641 485829.969 10.457 9031 
142912.656 485826.938 14.216 9049 
142912.984 485826.156 6.804 9050 
142912.672 485826.469 14.534 9055 
142912.859 485824.812 11.928 9062 
142912.984 485826.125 14.998 9156 
142913.141 485823.031 15.865 9166 
142913.578 485825.469 7.867 9267 
142913.719 485821.375 9.626 9285 
142913.719 485821.125 9.632 9287 
142913.812 485828.469 3.411 9349 
142914.281 485826.188 1.867 9465 
142914.172 485821.844 10.482 9495 
142914.906 485826.031 2.013 9667 
142914.656 485825.031 10.004 9680 
142914.5 485824.938 14.353 9683 
142914.672 485821.5 14.45 9695 
142914.922 485821.75 11.041 9793 
142914.797 485821.594 14.587 9795 
142915.016 485821.562 14.936 9885 
142915.344 485824.406 10.93 9954 
142915.328 485824.219 11.671 9955 
142915.312 485821.906 15.195 9971 
142915.781 485826.5 2.65 10034 
142910.844 485827 -4.268 11455 

109 3
8 11
113 21
124 28
119 30
31 32
43 35
42 48
43 49
137 51
151 71
83 81
184 101
184 103
19 107
30 118
133 132
135 134
141 136
54 141
139 143
63 146
68 159
155 160
68 163
73 164
174 175
182 184
103 185
134 12
22 129
130 127
31 50
41 137
54 153
131 66
163 167
151 152
80 133
133 139
83 82
173 85
173 89
177 179
161 93
186 187
99 95
17 16
19 17
109 1
115 9
30 29
34 122
50 123
39 34
39 38
12 10
32 154
136 44
138 60
84 80
134 13
26 22
49 42
63 65
49 45
86 90
143 148
69 150
146 53
147 75
156 155
149 162
163 169
156 73
157 88
52 55
88 91
91 178
178 102
116 4
17 108
26 126
113 110
22 135
107 23
32 124
120 27
119 36
52 166
56 64
65 62
62 67
67 131
146 156
66 70
169 72
168 74
169 171
168 173
86 84
148 83
87 92
161 165
88 174
91 97
8 105
8 6
2 0
19 106
120 14
36 47
121 109
29 8
56 112
124 2
9 111
123 113
29 19
4 114
116 115
36 56
121 116
34 20
106 61
25 121
38 119
58 33
58 57
125 18
25 7
35 117
38 59
41 39
60 37
62 120
131 58
12 5
44 41
40 24
28 130
35 125
138 128
84 79
136 26
137 25
42 40
145 43
66 138
135 15
130 140
51 144
65 147
32 54
51 63
44 151
147 142
87 86
144 149
155 145
152 76
149 46
141 158
76 157
157 87
152 94
150 168
76 161
162 52
158 69
145 68
73 170
54 176
67 172
154 177
160 77
174 96
97 98
69 78
89 180
97 182
178 183
177 189
180 186
103 188
187 99
186 100
99 104
180 181
190 31
