ply
format ascii 1.0
element vertex 235
property float x
property float y
property float z
element edge 234
property int vertex1
property int vertex2
end_header

142944.5 485756.688 6.28 
142948.844 485757.469 2.36 
142949.922 485760.969 13.88 
142945.656 485756.438 13.9 
142945.203 485755.844 10.45 
142948.75 485752.281 10.88 
142944.984 485760.719 6.74 
142944.469 485758.781 5.24 
142949.109 485762.125 7.69 
142946.5 485759.219 2.45 
142945.656 485757.844 9.84 
142944.562 485756.094 10.48 
142949.625 485759.094 16.38 
142948.125 485758.188 0.93 
142946.391 485756.562 13.73 
142949.812 485758.969 15.91 
142948.484 485758.156 1.45 
142947.391 485757.062 14.95 
142950.375 485758.875 14.7 
142949.609 485758.406 7.59 
142948.906 485756.938 2.57 
142950.938 485758.125 13.92 
142948.562 485755.688 9.08 
142950.891 485756.219 15.49 
142950.5 485755.938 14.41 
142950.953 485754.906 3.5 
142950.453 485754.5 4.06 
142952.828 485755.094 8.1 
142951.391 485753.969 4.85 
142949.781 485752.125 11.14 
142953.406 485754.75 9.82 
142951.5 485752.719 4.12 
142948.281 485757.469 -4.57 
142949.375 485762.188 7.504 
142949.75 485761.125 13.757 
142949.766 485760.75 12.596 
142949.469 485760.625 12.852 
142949.844 485758.875 16.11 
142949.422 485759.219 9.175 
142953.984 485755.094 8.87 
142953.188 485755.469 11.843 
142949.109 485759.688 4.31 
142948.812 485759.656 6.916 
142946.922 485760.688 13.072 
142952.234 485756.781 4.616 
142949.484 485758.375 7.479 
142950.109 485757.375 11.237 
142950.531 485756.781 12.932 
142952.094 485755.781 5.865 
142949.922 485757.062 11.903 
142950.844 485755.875 14.964 
142948.219 485759.469 1.521 
142949.656 485756.875 12.641 
142949.25 485757.625 6.056 
142949.016 485757.688 2.144 
142947.844 485757.062 12.691 
142948.781 485757.344 -0.169 
142948.922 485757.188 0.147 
142949.938 485755.969 2.525 
142951.266 485754.562 4.139 
142947.5 485757.312 1.168 
142945.453 485757.719 9.947 
142946.516 485756.438 9.827 
142946.125 485756.406 13.202 
142946.141 485756.188 15.133 
142945.25 485757.906 3.904 
142944.625 485757.844 9.159 
142944.625 485756.344 10.598 
142948.547 485752.625 11.677 
142949.219 485752.188 10.233 
142944.391 485755.219 9.777 
142944.734 485755.531 10.193 
142947.562 485752.688 8.425 
142948.766 485752.062 11.503 
142948.344 485752.75 7.335 
142948.25 485753.531 12.57 
142946.375 485756.188 14.966 
142946.484 485756.188 16.137 
142949.203 485752.531 9.917 
142946.609 485756.344 14.325 
142946.25 485756.75 13.888 
142946.609 485756.562 12.991 
142948.641 485754.281 11.31 
142946.703 485756.406 8.947 
142947.453 485756.906 14.502 
142948.406 485757.312 10.42 
142945.578 485760.031 4.065 
142950.672 485755.812 16.218 
142950.547 485756 16.564 
142948.984 485756.844 0.968 
142949.359 485757.125 1.338 
142949.969 485757.375 9.108 
142947.297 485761.125 12.658 
142948 485760.156 7.537 
142949.953 485758.812 16.07 
142949.484 485758.812 8.277 
142948.797 485759.469 6.503 
142949.844 485758.125 2.676 
142948.688 485761.719 13.707 
142949.281 485761.594 6.725 
142944.812 485761.25 7.452 
142944.453 485758.312 4.395 
142943.594 485756.469 6.624 
142943.188 485755.188 7.46 
142944.438 485756.906 5.483 
142945.922 485759.844 3.873 
142944.875 485756.969 4.899 
142945.125 485757.969 9.514 
142945.406 485757.938 3.471 
142945.688 485757.875 3.076 
142946.766 485761.094 12.594 
142946.641 485759.031 2.505 
142947.141 485761.094 12.257 
142948.531 485763.531 7.874 
142947.484 485760.938 11.959 
142947.688 485760.812 11.731 
142948.891 485762.906 7.626 
142947.688 485760.312 13.397 
142946.344 485756.219 9.034 
142947.094 485758.25 13.792 
142949.375 485762.375 7.667 
142947.281 485756.781 8.56 
142948.734 485760.031 10.575 
142949.297 485760.625 5.301 
142949.422 485760.969 5.775 
142949.344 485760.188 4.883 
142948.344 485758.125 14.079 
142948.734 485757.594 0.333 
142949.469 485759.438 9.505 
142949.344 485758.5 11.421 
142949.234 485757.531 4.039 
142949.375 485757.844 4.369 
142949.062 485756.906 7.291 
142949.578 485759 17.068 
142947.5 485752.688 5.077 
142948.625 485754.844 3.574 
142949.266 485756.375 5.529 
142948.219 485753.781 6.907 
142948.781 485755.25 9.726 
142949.234 485756.562 13.185 
142947.656 485753.094 14.172 
142947.609 485752.312 7.873 
142948.094 485752.969 4.659 
142949.781 485757.812 17.275 
142947.734 485752.594 13.89 
142947.953 485753.031 13.796 
142948.078 485753.281 13.62 
142948 485752.531 7.708 
142948.625 485753.719 12.551 
142948.609 485753.562 11.655 
142949.781 485756.469 16.224 
142950.953 485758.156 8.845 
142949.797 485755.906 15.674 
142950.172 485756.844 16.935 
142949.906 485755.844 15.79 
142949.469 485752.938 8.966 
142950.953 485756.719 15.787 
142950.891 485756.375 13.763 
142949.375 485752.156 9.321 
142950.844 485754.656 3.62 
142950.984 485755.75 14.6 
142950.875 485754.406 3.675 
142951.438 485755.938 12.969 
142950.125 485752.219 9.695 
142952.531 485756.969 7.475 
142951.438 485753.906 4.549 
142950.344 485751.969 10.47 
142953.125 485757.031 8.59 
142954.094 485756.875 10.103 
142954.188 485756.031 11.105 
142953.922 485755.031 9.27 
142952.609 485751.312 4.686 
142943.438 485755.812 7.039 
142943.703 485756.406 6.548 
142944.469 485758.844 5.114 
142944.547 485757.031 5.439 
142944.812 485760.562 4.55 
142944.797 485756.094 10.487 
142944.859 485755.438 9.851 
142945.375 485760.469 6.04 
142946.438 485760 8.587 
142946.75 485758.969 2.272 
142946.422 485756.312 13.946 
142947.016 485758.688 1.918 
142946.75 485759.75 11.825 
142946.969 485757.219 9.574 
142947.516 485752.156 7.739 
142947.844 485752.344 7.793 
142948.078 485758.156 0.934 
142947.578 485758.062 13.76 
142947.656 485756.875 13.083 
142947.609 485756.688 14.934 
142948.297 485758.094 0.826 
142947.938 485757.062 11.378 
142948.312 485752.844 7.399 
142947.875 485762.062 14.337 
142948.406 485753.75 11.33 
142948.344 485753.281 13.544 
142948.641 485760.062 7.033 
142948.453 485760.438 11.139 
142948.75 485754.531 11.037 
142948.734 485753.938 12.27 
142948.703 485753.781 13.039 
142948.547 485761.625 13.702 
142949.172 485757.438 3.189 
142949.031 485756.625 7.725 
142949.047 485756.375 7.888 
142949.031 485755.531 9.27 
142948.984 485753.375 12.871 
142948.922 485760.188 10.638 
142949.328 485758.094 2.875 
142949.297 485757.562 4.308 
142949.219 485756.719 7.441 
142949.562 485754.312 7.957 
142949.578 485753.344 8.687 
142949.641 485761.5 5.799 
142949.812 485760.969 13.553 
142949.797 485759.281 16.211 
142950.516 485755.219 3.046 
142950.234 485757 15.183 
142951.328 485756.531 4.384 
142951.5 485755.969 0.847 
142951.062 485756.156 11.626 
142951.516 485752.781 4.258 
142951.531 485752.344 4.65 
142951.516 485752.094 5.042 
142951.172 485757.625 12.246 
142951.5 485754.938 13.215 
142952.016 485751.75 4.033 
142952.75 485755.594 7.287 
142952.953 485755.406 11.945 
142953.219 485755.375 11.944 
142953.469 485757.031 8.893 
142954.062 485756.906 9.826 
142954.062 485755.812 11.203 

54 1
216 2
174 7
33 8
111 9
177 11
37 12
45 19
223 31
35 36
96 42
160 50
56 57
76 64
177 67
78 69
194 74
14 80
89 90
37 94
173 102
175 104
181 111
56 127
38 128
211 131
197 146
201 148
152 154
25 159
159 161
233 168
39 170
141 186
147 187
13 188
55 190
98 203
205 206
122 209
130 211
132 212
15 217
40 230
40 231
115 114
15 37
21 18
88 153
187 141
192 16
192 13
188 60
57 89
70 178
141 72
159 26
23 87
216 34
33 120
120 116
200 82
148 208
157 24
170 30
70 71
108 65
83 118
81 14
183 181
112 110
114 112
194 147
145 144
146 145
98 195
214 155
124 215
49 52
218 25
223 224
87 88
5 73
179 6
198 93
175 0
106 175
210 97
201 75
145 140
99 33
115 117
234 40
42 198
131 53
204 130
105 86
193 55
190 84
84 17
107 61
182 79
79 76
83 62
148 202
155 78
166 29
142 134
178 4
71 177
76 77
82 149
107 10
55 189
212 205
165 28
50 23
53 132
23 156
125 123
35 216
123 124
124 99
101 174
172 103
173 172
86 179
66 107
103 70
108 106
199 115
14 182
81 63
122 184
209 199
85 193
132 121
1 20
45 95
95 38
128 129
130 136
212 91
207 138
52 139
82 196
138 200
152 150
78 68
49 47
58 218
91 222
57 221
59 165
164 167
48 229
224 225
232 233
169 234
168 169
228 171
104 173
102 66
65 101
6 100
86 176
109 108
9 105
80 3
183 109
193 81
110 43
121 185
121 83
13 51
188 183
189 119
84 191
114 92
93 180
137 194
127 192
135 142
75 197
127 54
20 135
206 22
136 137
82 201
69 5
210 41
54 210
1 204
205 85
116 113
128 122
131 96
129 126
206 207
41 125
36 98
53 45
90 58
136 213
213 214
155 158
209 35
214 163
37 133
91 46
46 49
24 152
163 166
18 15
45 151
46 226
24 219
54 220
47 157
25 59
50 143
161 223
157 160
226 21
220 44
222 162
220 48
222 227
31 228
211 164
229 27
167 232
229 39
32 56
