ply
format ascii 1.0
element vertex 80
property float x
property float y
property float z
element edge 79
property int vertex1
property int vertex2
end_header

142948.719 485756.688 -0.08 
142949.266 485756.594 1.76 
142950.219 485759.188 15.29 
142949.281 485756.812 12.77 
142948.406 485753.312 13.29 
142949.766 485758.875 15.97 
142946.422 485756.281 15.76 
142950.203 485756.688 10.36 
142949.266 485757.375 6.52 
142949.25 485757.219 4.37 
142948.891 485756.906 2.31 
142948.75 485752.281 10.88 
142948.938 485762.281 7.82 
142947.578 485761.125 12.1 
142946.422 485759.5 2.79 
142948.484 485760.125 8.06 
142946.703 485758.812 1.99 
142945.953 485758.188 3.18 
142945.422 485757.656 10.08 
142948.984 485760.156 11.2 
142948.609 485759.375 6.82 
142948.375 485758.844 3.62 
142945.078 485756.125 10.58 
142949.625 485759.094 16.38 
142948.125 485758.188 0.93 
142947.703 485757.844 0.19 
142948.609 485758.219 3.79 
142948.484 485758.156 1.45 
142945.875 485755.875 13.53 
142950.062 485758.594 16.51 
142949.062 485758.031 4.96 
142947.75 485756.906 8.11 
142946.891 485756.156 12.03 
142948.766 485757.25 8.69 
142949.25 485757.094 9.73 
142948.641 485756.625 8.13 
142947.219 485755.469 9.28 
142948.688 485756.344 13.82 
142949.109 485756.812 5.14 
142949.359 485757.094 0.09 
142947.719 485755.625 10.44 
142947.062 485755.125 9.71 
142949.109 485756.156 7.23 
142949.172 485756.312 0.98 
142950.422 485756.719 10.91 
142949.016 485755.688 6.78 
142948.594 485755.312 6.01 
142948.781 485754.938 9.52 
142948.875 485755.031 7.68 
142950.75 485756.312 0.73 
142951.047 485755.812 13.58 
142950.188 485755.281 3.55 
142950.453 485754.5 4.06 
142951.156 485754.812 3.41 
142951.062 485753.25 3.59 
142951.781 485752.531 4.3 
142948.359 485757.594 -4.57 
142947.891 485757.219 -4.49 
142949.438 485757.25 0.83 
142948.906 485758.062 2.225 
142948.734 485756.125 4.16 
142949.109 485758.688 7.785 
142948.078 485756.781 9.275 
142948.875 485758.094 2.32 
142948.688 485755.844 4.804 
142949.062 485759.281 9.14 
142949.094 485758.875 8.236 
142949.109 485758.688 7.785 
142949.109 485758.688 7.785 
142949.281 485756.906 11.716 
142949.266 485757.344 6.899 
142946.469 485756.531 9.298 
142947.219 485756.75 8.607 
142947.578 485756.531 10.431 
142948.078 485756.781 9.275 
142946.406 485756.031 12.749 
142948.688 485755.188 9.487 
142948.141 485756.625 9.295 
142948.641 485752.562 11.585 
142946.875 485758.75 1.869 

43 1
5 23
5 29
35 33
0 39
36 41
45 42
7 44
46 45
56 57
16 17
20 15
24 27
2 5
26 30
8 31
9 38
33 34
42 35
41 40
48 36
51 53
19 13
16 14
20 18
21 12
19 2
30 20
28 6
3 37
0 24
45 48
44 50
47 4
51 52
52 54
54 55
43 51
24 58
58 49
58 43
58 59
59 10
10 60
60 9
60 26
9 61
61 8
8 62
62 7
56 0
56 25
59 63
63 21
60 64
64 46
65 19
66 65
67 66
61 68
68 67
69 3
8 70
70 69
71 22
31 72
72 71
73 32
62 74
74 73
32 75
75 28
76 47
62 77
77 76
4 78
78 11
24 79
79 16
