ply
format ascii 1.0
element vertex 241
property float x
property float y
property float z
element edge 240
property int vertex1
property int vertex2
end_header

142958.109 485738.25 4.72 
142960.797 485740.062 11.61 
142961.328 485738.125 14.16 
142961.656 485739.031 15.28 
142957.125 485734.406 11.29 
142962.938 485733.656 15.89 
142961.719 485734.75 4.61 
142960.406 485739.375 14.01 
142959.312 485737.406 14.6 
142958.281 485736.75 2.51 
142959.734 485736.875 14.79 
142961.766 485738.094 14.89 
142960.297 485736.938 12.91 
142959.094 485736.094 4.88 
142957.391 485734.281 10.4 
142961.391 485737.156 0.7 
142959.844 485735.875 4.17 
142962.562 485737.75 12.88 
142962.234 485737.625 1.81 
142960.156 485735.969 1.85 
142962.391 485737.125 12.7 
142961.469 485736.438 8.68 
142960.75 485735.875 9.45 
142959.922 485734.844 13.81 
142960.109 485734.594 12.53 
142961.547 485735.031 12.69 
142961.859 485735.312 6.19 
142961.469 485734.844 1.27 
142960.109 485733 12.31 
142959.469 485731.656 12.02 
142959.516 485730.688 10.6 
142963.922 485733.125 14.96 
142962.234 485731.5 2.58 
142964.375 485732.75 15.27 
142964.578 485732.406 14.93 
142960.812 485735.312 -4.51 
142962.812 485737.844 13.875 
142961.688 485738.594 13.25 
142960.5 485739.25 13.388 
142961.031 485737.938 15.572 
142962 485736.5 14.064 
142961.344 485737.094 10.742 
142963.344 485735.188 5.527 
142962.469 485735.531 9.725 
142966.672 485732 6.971 
142964.906 485733.062 11.675 
142966.891 485731.688 7.78 
142965.047 485732.625 14.412 
142965.016 485732.562 15.132 
142966.906 485731.281 11.45 
142960.188 485737 10.787 
142959.844 485736.875 14.541 
142965.359 485733.031 4.137 
142962.188 485735.281 6.901 
142964.875 485732.219 12.051 
142961.578 485735.375 2.172 
142961.625 485735.25 2.711 
142961.375 485735.375 -0.334 
142961.422 485735.156 1.405 
142961.516 485735 1.865 
142961.75 485733.562 12.596 
142961.703 485733.375 14.524 
142959.906 485735.812 1.912 
142959.016 485736.281 5.008 
142963.688 485731.375 10.567 
142961.5 485732.531 12.576 
142956.719 485734.281 11.761 
142960.672 485730.938 9.448 
142959.734 485731.531 11.886 
142957.422 485733.375 10.587 
142959.516 485730.844 10.858 
142958.5 485729.719 8.092 
142958.969 485729.781 10.137 
142959.297 485731.375 13.404 
142959.719 485731.188 11.882 
142957.5 485734.094 9.68 
142957.297 485734.562 11.435 
142957.25 485734.688 12.096 
142962.312 485728.375 8.584 
142962.125 485728.594 8.685 
142960.219 485730.719 6.688 
142959.5 485732.375 12.31 
142959.312 485732.625 12.501 
142957.438 485734.938 12.37 
142957.156 485735.969 4.416 
142961.188 485732.688 5.009 
142961.625 485733.031 12.161 
142958.766 485735.75 5.336 
142961.922 485732.438 3.095 
142959.156 485736.094 4.725 
142959.188 485736.969 11.704 
142959.203 485737.375 15.107 
142959.172 485737.5 15.808 
142959.703 485736.906 11.182 
142959.938 485736.875 13 
142959.984 485737.031 14.878 
142961.938 485734.406 9.468 
142964.469 485732.375 15.088 
142961.453 485734.969 5.773 
142961.781 485734.938 4.814 
142966.531 485730.094 8.079 
142962.297 485734.531 1.384 
142964.344 485733.781 15.314 
142962.391 485735.25 7.98 
142963.891 485734.312 15.183 
142961.484 485736.469 8.611 
142962.031 485736.625 15.17 
142965.844 485732.594 16.706 
142962.859 485735.25 8.311 
142960.766 485738.094 9.995 
142960.688 485738.25 10.478 
142966.609 485730.906 7.732 
142966.656 485731.188 10.586 
142962.562 485736.438 11.491 
142960.406 485739 10.368 
142960.141 485739.375 11.038 
142960.031 485739.594 11.325 
142960.516 485739.312 14.178 
142960.406 485738.812 5.413 
142961.438 485738.531 13.041 
142963.703 485736.719 15.33 
142962.266 485737.688 1.702 
142957.203 485735.781 4.362 
142957.5 485736.281 3.178 
142957.969 485736.312 2.984 
142958.641 485736.469 2.467 
142959.156 485737.625 3.373 
142959.719 485739.031 5.699 
142959.344 485737.5 14.176 
142959.344 485736.625 15.214 
142959.594 485736.531 15.179 
142960.031 485736.094 1.91 
142960.672 485738.281 10.001 
142959.219 485734.344 7.99 
142959.969 485736.094 9.713 
142961.266 485738.562 14.773 
142962.312 485738.5 5.82 
142958.297 485730.125 11.5 
142958.172 485729.531 8.258 
142962 485737.25 5.889 
142961.797 485736.344 0.835 
142960.734 485735 13.157 
142961.469 485735.312 1.197 
142961.625 485736.594 16.43 
142959.906 485731.5 8.379 
142962.422 485737.156 12.643 
142962.688 485736.938 4.765 
142962.953 485737.5 5.101 
142959.734 485730.75 9.935 
142959.609 485730.156 9.705 
142959.531 485729.781 7.652 
142959.953 485730.844 9.627 
142960.594 485731.812 5.737 
142962.188 485734.656 1.151 
142959.828 485729.844 7.584 
142959.938 485730.031 7.353 
142960.469 485731.281 8.774 
142960.906 485732.125 8.124 
142962.531 485736.406 16.875 
142962.625 485736.219 12.928 
142962.469 485735.5 9.064 
142963.203 485736.438 10.21 
142961.594 485732.781 12.512 
142961.016 485731.281 13.634 
142961.562 485732.312 12.603 
142961.891 485732.031 3.28 
142960.953 485730.625 14.35 
142961.688 485730.344 4.259 
142963.25 485733.906 7.588 
142962.969 485732.812 7.825 
142962.75 485732.156 8.654 
142961.578 485728.875 5.884 
142963.656 485733.562 9.019 
142963.891 485733.438 9.775 
142962.25 485728.844 8.228 
142962.484 485729.312 7.944 
142964.141 485733 10.512 
142964.656 485733.344 3.195 
142963.766 485731.562 10.432 
142964.516 485732.969 8.935 
142964.656 485732.938 13.068 
142964.953 485733.156 14.689 
142964.984 485732.406 14.514 
142965.109 485732.594 14.195 
142965.078 485732 15.12 
142965.422 485732.156 9.57 
142966.234 485732.438 5.572 
142967.594 485731.25 9.678 
142956.812 485734.594 12.737 
142957.578 485737.969 4.978 
142957.719 485736.062 3.51 
142958.422 485734.156 9.005 
142958.422 485733.938 9.202 
142958.688 485734.25 8.701 
142958.609 485737.062 12.133 
142958.969 485730.156 11.224 
142959.766 485729.906 7.525 
142959.938 485736.281 2.077 
142959.703 485732.719 12.373 
142959.734 485731.719 12.83 
142959.891 485730.875 9.801 
142960.219 485730.438 7.101 
142960.141 485729.625 10.04 
142959.906 485736.969 13.803 
142960.359 485731.875 8.445 
142960.375 485731.156 9 
142960.312 485737 12.635 
142960.828 485731.906 5.667 
142960.828 485731.656 5.903 
142960.828 485731.406 6.119 
142960.641 485736.844 10.364 
142960.953 485732.281 8.058 
142960.766 485738.656 10.014 
142960.859 485737.406 9.253 
142960.906 485739.062 12.943 
142961.156 485737.25 9.123 
142961.516 485735.219 2.42 
142961.531 485733.438 4.221 
142961.75 485736.719 4.109 
142961.547 485736.625 9.439 
142961.641 485733.844 10.395 
142962 485732.25 3.147 
142962 485731.531 3.818 
142961.797 485739.438 6.134 
142962.031 485736.375 3.77 
142962.062 485734.938 4.83 
142962 485739.438 6.062 
142962.25 485739.219 6.004 
142962.469 485737.938 1.826 
142963.062 485734.094 6.773 
142963.266 485735.281 5.29 
142963.141 485736.344 13.856 
142963.141 485735.906 14.465 
142963.828 485733.531 9.169 
142963.859 485732.344 9.894 
142963.875 485731.375 10.559 
142964.5 485733.219 11.354 
142966.203 485732.188 5.952 
142966.672 485730.688 7.888 
142967.234 485731.469 8.693 
142967.484 485731.281 9.163 

51 10
206 12
89 13
121 18
145 20
105 21
98 26
58 27
68 29
97 33
183 47
59 55
216 56
142 58
19 62
13 63
178 64
162 65
74 68
122 84
51 95
34 97
6 99
153 101
102 104
115 116
7 117
109 132
71 138
200 148
196 150
207 152
196 154
211 157
65 164
221 165
47 181
47 182
155 196
131 197
151 200
156 205
55 216
21 219
226 223
172 233
178 235
160 43
13 87
58 59
208 209
34 31
227 226
128 8
30 70
4 66
236 45
119 2
135 3
77 188
75 14
8 91
191 192
193 191
206 94
215 213
140 15
224 218
99 225
88 221
174 79
76 77
199 73
210 50
132 114
22 210
119 37
145 17
17 36
233 234
182 48
186 237
240 187
4 76
109 110
195 137
8 92
203 128
105 215
103 108
225 230
86 162
207 208
182 184
174 78
2 135
37 11
110 115
2 39
121 228
159 231
113 159
40 106
118 127
53 103
233 173
173 176
22 134
86 60
190 122
29 81
74 199
80 201
149 72
164 163
85 207
60 61
125 9
169 170
182 34
132 212
115 1
239 240
147 136
0 189
14 4
77 83
191 75
93 90
38 7
214 38
213 109
41 119
21 22
81 82
57 142
81 198
57 140
150 71
70 74
106 143
148 30
204 144
157 204
151 149
103 160
113 145
160 161
88 32
231 232
230 42
163 166
221 222
173 236
236 180
179 185
44 46
46 239
238 100
112 49
111 238
124 123
124 190
192 69
125 124
126 0
197 125
16 89
90 194
133 193
30 195
197 126
201 155
19 131
216 16
10 129
10 130
208 80
205 151
50 93
94 203
203 51
24 23
156 67
205 202
41 206
98 133
24 141
157 156
142 19
217 85
110 214
218 118
142 153
59 217
220 24
220 28
222 167
167 171
215 41
26 105
56 6
99 98
6 211
60 25
27 88
220 86
56 224
96 220
85 175
175 174
140 121
26 53
53 96
136 227
146 139
224 146
146 147
161 113
159 40
225 229
229 169
232 158
229 168
168 172
31 5
231 120
234 178
153 177
168 179
181 102
45 54
177 52
180 183
52 186
48 107
237 44
44 111
187 112
35 57
