ply
format ascii 1.0
element vertex 138
property float x
property float y
property float z
element edge 137
property int vertex1
property int vertex2
end_header

142964.109 485736.906 15.981 
142961.766 485738.469 13.725 
142962.422 485738.375 5.774 
142963.25 485737.656 5.405 
142960.5 485739.25 13.388 
142961.531 485738.406 12.552 
142962.531 485738.125 2.014 
142962.922 485737.406 4.994 
142960.578 485738.875 10.973 
142961.391 485737.969 12.449 
142962.656 485736.812 12.339 
142961.906 485736.781 15.27 
142962.078 485737.375 5.918 
142962 485736.5 14.064 
142960.969 485736.812 10.302 
142959.5 485737.625 15.021 
142966.672 485732 6.971 
142964.734 485732.969 13.806 
142965.047 485732.625 14.412 
142966.906 485731.281 11.45 
142961.922 485736.25 3.509 
142962.344 485735.312 8.311 
142959.047 485737.438 16.118 
142959.844 485736.875 14.541 
142963.844 485733.875 9.019 
142964.297 485733.188 11.223 
142964.922 485732.562 11.767 
142964.656 485732.469 14.778 
142962.125 485735.375 6.393 
142961.359 485735.75 9.13 
142959.688 485736.625 14.994 
142965.453 485732.688 3.506 
142963.656 485733.688 8.871 
142964.031 485733.219 10.034 
142964.781 485732.438 10.961 
142964.875 485732.219 12.051 
142964.422 485732.25 15.316 
142961.953 485735.281 5.143 
142963.219 485733.844 7.573 
142966.625 485730.719 7.648 
142966.875 485730.469 7.75 
142961.578 485735.562 0.312 
142961.688 485735.438 0.718 
142961.578 485735.375 2.172 
142961.625 485735.25 2.711 
142961.422 485735.156 1.405 
142961.516 485735 1.865 
142962.938 485733.031 7.78 
142961.406 485733.875 12.717 
142961.797 485733.406 13.693 
142961.312 485735.062 0.602 
142961.766 485734.531 1.618 
142961.688 485733.562 10.531 
142959.016 485736.281 5.008 
142961.578 485733.188 11.621 
142961.594 485733.094 12.185 
142963.688 485731.375 10.567 
142961.5 485732.531 12.576 
142961.281 485733.188 4.548 
142961.453 485733 4.841 
142960.406 485733.156 11.855 
142959.016 485734.438 8.043 
142962 485730.656 4.007 
142959.641 485731.781 13.001 
142956.719 485734.281 11.761 
142957.422 485733.375 10.587 
142960.266 485730.594 6.959 
142961.75 485728.875 6.032 
142959.875 485729.688 7.715 
142958.375 485729.75 8.358 
142959.766 485730.031 7.549 
142956.891 485734.031 10.182 
142959.891 485730.375 7.453 
142959.719 485731.188 11.882 
142957.188 485734.094 9.93 
142957.422 485734.219 10.216 
142957.344 485734.406 10.805 
142960.219 485730.719 6.688 
142957.438 485734.938 12.37 
142960.375 485731.531 8.927 
142961.219 485731.594 13.485 
142959.922 485733.062 12.361 
142957.156 485735.969 4.416 
142961.703 485733.438 15.852 
142958.641 485736.469 2.587 
142958.438 485736.719 2.582 
142959.188 485736.969 11.704 
142959.203 485737.375 15.107 
142959.578 485736.438 2.161 
142961.453 485734.969 5.773 
142961.062 485735.906 9.431 
142961.375 485736.562 17.479 
142961.781 485734.938 4.814 
142961.016 485735.469 1.54 
142960.797 485735.719 1.491 
142966.531 485730.094 8.079 
142965.141 485732.781 15.344 
142962.234 485735.031 4.778 
142964.344 485733.781 15.314 
142962.391 485735.25 7.98 
142961.906 485735.719 6.829 
142961.391 485736.75 9.878 
142961.844 485736.75 14.383 
142962.359 485736.5 17.363 
142962.609 485735.094 4.696 
142962.609 485735.656 9.1 
142963.031 485735.812 14.25 
142962.484 485736.312 12.787 
142961.438 485736.906 4.276 
142962.562 485736.438 11.491 
142962.391 485737.312 12.781 
142967.312 485731.375 8.88 
142962.547 485736.75 4.497 
142962.547 485737.844 5.504 
142963.641 485737.156 11.001 
142961.016 485735.5 -4.228 
142961.016 485735.281 -2.297 
142962.578 485737.219 10.338 
142962.484 485737.25 11.559 
142961.844 485735 5.276 
142961.984 485734.219 9.801 
142962.75 485737.312 9.086 
142961.984 485736.812 14.732 
142961.984 485736.812 14.668 
142962.438 485737.125 11.385 
142963.016 485735.844 14.2 
142962.875 485737.469 5.067 
142961.656 485736.219 8.346 
142961.609 485733.25 12.749 
142961.594 485733.219 12.206 
142958.234 485733.906 9.295 
142960.672 485732.25 8.167 
142960.812 485732.562 7.837 
142961.844 485735 5.276 
142962.344 485734.906 5.08 
142964.125 485733.219 10.489 
142960.859 485731.969 5.778 
142961.906 485732.188 3.063 

7 3
101 14
99 21
32 24
92 37
39 40
46 43
50 45
45 46
38 47
77 66
70 68
74 71
74 75
84 85
15 87
29 90
93 94
28 100
13 102
97 104
20 108
109 107
20 112
17 18
89 28
32 33
33 34
45 93
54 48
75 76
77 72
54 55
89 61
23 30
23 15
27 36
46 58
34 26
21 105
107 13
11 91
39 95
109 10
9 5
113 2
16 111
27 96
21 29
44 20
28 99
16 39
43 53
52 60
57 80
84 82
62 67
70 69
72 73
76 78
60 63
60 81
61 74
57 49
58 77
87 22
93 88
32 56
18 27
14 86
38 32
105 109
106 103
9 1
12 8
34 19
5 4
105 114
106 0
112 7
115 116
42 44
55 57
25 35
44 59
42 51
50 6
45 42
112 12
117 118
118 110
97 119
119 89
99 120
120 54
120 52
61 64
115 41
115 50
88 84
3 121
121 117
122 11
123 122
117 124
124 123
118 125
125 106
7 126
126 113
44 92
44 97
100 127
127 101
14 9
14 23
128 83
54 129
129 128
61 130
130 65
131 79
132 131
119 133
133 132
97 134
134 38
33 135
135 25
25 17
17 98
59 136
136 70
51 16
51 31
51 137
137 62
