ply
format ascii 1.0
element vertex 148
property float x
property float y
property float z
element edge 147
property int vertex1
property int vertex2
end_header

142957.484 485738.812 5.679 
142958.375 485738.281 4.615 
142958.453 485738.062 4.561 
142958.688 485738.469 3.997 
142956.531 485734.188 11.764 
142957.969 485736.312 2.984 
142959.172 485737.344 3.248 
142956.938 485732.969 11.336 
142960.094 485739.5 10.663 
142959.094 485736.5 15.483 
142959.531 485737 11.228 
142958.281 485733.781 9.268 
142961.328 485739.844 6.259 
142960.031 485736.094 1.91 
142962.062 485739.594 6.035 
142960.844 485737.812 16.085 
142960.844 485737.188 9.929 
142960.938 485737.312 9.225 
142957.797 485729.344 8.441 
142961.609 485737.344 14.729 
142961.594 485736.625 8.199 
142961.422 485735.469 0.316 
142962.469 485738.219 5.778 
142962.312 485737.469 1.579 
142961.469 485735.312 1.197 
142962.438 485737.781 5.536 
142958.578 485729.75 11.693 
142961.625 485736.594 16.43 
142961.375 485735 12.73 
142962.812 485737.188 4.904 
142962.953 485737.5 5.101 
142960.406 485731.719 5.761 
142960.609 485732.406 8.094 
142959.609 485730.156 9.705 
142961.156 485733.5 10.839 
142961.984 485734.594 4.817 
142962.203 485735.312 7.544 
142960.016 485730.406 9.437 
142959.938 485730.031 7.353 
142960.906 485732.125 8.124 
142961.125 485732.281 5.123 
142961.797 485734.125 9.656 
142962.531 485736.406 16.875 
142962.422 485734.938 4.677 
142960.031 485729.562 7.627 
142962.656 485735.094 8.108 
142962.766 485735 4.968 
142962.641 485734.375 1.61 
142961.594 485732.781 12.512 
142963.078 485736.062 14.306 
142959.938 485728.719 10.527 
142961.016 485731.281 13.634 
142961.656 485732.531 12.569 
142961.891 485732.031 3.28 
142963.172 485735.875 14.666 
142963.547 485736.781 15.509 
142961.844 485732.344 13.038 
142963.688 485735.469 5.856 
142961.688 485730.344 4.259 
142961.094 485728.469 6.298 
142963.219 485733.75 14.818 
142962.094 485730.094 7.179 
142963.703 485734.344 15.817 
142962.172 485729.625 7.557 
142962.25 485728.844 8.228 
142963.641 485731.312 10.468 
142963.766 485731.562 10.432 
142964.5 485733.219 11.641 
142965.219 485732.875 9.382 
142965.109 485732.594 14.195 
142965.156 485731.594 15.479 
142965.281 485731.812 15.377 
142966.719 485731.656 11.073 
142966.594 485730.531 7.946 
142966.812 485730.969 7.679 
142967.016 485730.719 7.742 
142967.594 485731.25 9.678 
142957.078 485735.562 4.537 
142957.719 485736.281 3.19 
142958.422 485734.156 9.005 
142958.422 485733.656 9.377 
142959.312 485730.969 8.468 
142959.391 485737.688 14.338 
142959.922 485730.531 9.526 
142960.078 485735.906 3.889 
142960.141 485738.969 5.377 
142959.906 485736.969 13.803 
142960.375 485731.156 9 
142960.812 485735.562 1.503 
142960.828 485731.906 5.667 
142960.594 485738.125 10.087 
142960.953 485732.531 7.842 
142960.812 485738.031 9.92 
142961.312 485735.281 0.567 
142960.812 485735.062 13.196 
142961.516 485735.219 2.42 
142961.391 485734.781 5.946 
142961.625 485736.094 7.838 
142961.812 485734.719 4.816 
142961.484 485735.094 12.784 
142962 485732.25 3.147 
142961.625 485733.031 11.814 
142962.016 485731.281 3.96 
142961.797 485739.438 6.134 
142962.031 485736.375 3.77 
142961.969 485735.531 6.546 
142961.844 485733.562 12.178 
142961.734 485732.844 15.696 
142962.188 485730.25 7.4 
142962.234 485728.25 8.713 
142962.266 485737.531 1.584 
142962.109 485737.188 5.775 
142962.266 485734.812 4.768 
142961.734 485736.625 16.227 
142962 485734.094 12.689 
142962.484 485730.906 4.17 
142962.422 485728.688 8.537 
142961.969 485737.781 14.752 
142962 485736.75 15.151 
142962.656 485729.375 7.551 
142962.969 485737.375 4.997 
142962.656 485737.469 13.156 
142962.672 485737.125 12.88 
142963.062 485734.094 6.773 
142963.094 485732.188 8.418 
142963.016 485741.031 5.141 
142963.25 485740.75 5.868 
142963.5 485733.75 8.195 
142963.844 485733.312 9.227 
142963.875 485731.375 10.559 
142963.906 485730.875 10.715 
142964.172 485731.188 10.957 
142963.984 485738.812 11.699 
142964 485738.531 11.725 
142964.281 485733.406 10.458 
142964.609 485740.312 9.17 
142964.719 485733.469 15.003 
142964.703 485733.312 15.572 
142964.875 485732.406 12.021 
142964.766 485732.344 14.904 
142964.828 485740.25 9.632 
142965.203 485732.438 14.432 
142965.203 485731.812 15.333 
142966.656 485732.062 6.821 
142966.828 485730.969 10.1 
142967.484 485731.281 9.163 
142960.688 485735.312 -4.109 
142960.703 485734.875 -3.904 

2 1
17 16
117 19
93 24
30 25
113 27
120 30
105 36
43 46
101 48
48 52
100 53
66 65
142 70
142 71
5 78
11 80
37 83
92 90
35 98
28 99
101 106
61 108
23 110
43 112
106 114
64 116
29 120
122 121
66 129
132 133
136 137
69 141
146 147
125 126
21 93
97 20
96 105
91 32
40 89
135 140
102 58
64 109
129 131
79 11
37 33
92 8
95 84
93 88
24 95
24 47
28 94
14 12
19 118
105 97
112 35
41 101
52 56
63 119
113 42
36 45
46 123
30 22
129 130
128 134
67 138
141 142
74 73
74 75
145 76
86 82
86 9
112 96
95 43
89 31
91 39
106 28
52 51
123 127
127 128
11 7
79 4
2 0
5 77
13 5
6 3
6 2
13 6
38 18
87 26
38 44
89 38
37 50
88 13
39 81
87 37
16 10
96 79
39 87
17 92
35 91
20 17
95 40
58 59
104 85
16 86
41 34
47 100
100 102
40 61
21 23
95 104
102 115
61 63
14 103
117 15
118 113
36 41
114 107
63 64
29 111
104 29
126 14
122 49
123 124
23 125
132 122
46 57
133 117
49 54
136 60
128 66
49 55
137 62
127 68
134 67
120 135
140 132
67 69
141 139
69 136
47 143
143 74
144 72
143 145
145 144
146 21
