ply
format ascii 1.0
element vertex 148
property float x
property float y
property float z
property float i
element edge 147
property int vertex1
property int vertex2
end_header

142957.484 485738.812 5.679 250 
142958.375 485738.281 4.615 457 
142958.453 485738.062 4.561 511 
142958.688 485738.469 3.997 514 
142956.531 485734.188 11.764 551 
142957.969 485736.312 2.984 572 
142959.172 485737.344 3.248 769 
142956.938 485732.969 11.336 810 
142960.094 485739.5 10.663 836 
142959.094 485736.5 15.483 966 
142959.531 485737 11.228 973 
142958.281 485733.781 9.268 1034 
142961.328 485739.844 6.259 1073 
142960.031 485736.094 1.91 1127 
142962.062 485739.594 6.035 1281 
142960.844 485737.812 16.085 1343 
142960.844 485737.188 9.929 1346 
142960.938 485737.312 9.225 1349 
142957.797 485729.344 8.441 1484 
142961.609 485737.344 14.729 1609 
142961.594 485736.625 8.199 1611 
142961.422 485735.469 0.316 1614 
142962.469 485738.219 5.778 1628 
142962.312 485737.469 1.579 1629 
142961.469 485735.312 1.197 1707 
142962.438 485737.781 5.536 1723 
142958.578 485729.75 11.693 1758 
142961.625 485736.594 16.43 1790 
142961.375 485735 12.73 1897 
142962.812 485737.188 4.904 1925 
142962.953 485737.5 5.101 1926 
142960.406 485731.719 5.761 1988 
142960.609 485732.406 8.094 1990 
142959.609 485730.156 9.705 2097 
142961.156 485733.5 10.839 2121 
142961.984 485734.594 4.817 2152 
142962.203 485735.312 7.544 2154 
142960.016 485730.406 9.437 2224 
142959.938 485730.031 7.353 2225 
142960.906 485732.125 8.124 2239 
142961.125 485732.281 5.123 2248 
142961.797 485734.125 9.656 2258 
142962.531 485736.406 16.875 2267 
142962.422 485734.938 4.677 2276 
142960.031 485729.562 7.627 2352 
142962.656 485735.094 8.108 2391 
142962.766 485735 4.968 2397 
142962.641 485734.375 1.61 2398 
142961.594 485732.781 12.512 2474 
142963.078 485736.062 14.306 2494 
142959.938 485728.719 10.527 2558 
142961.016 485731.281 13.634 2573 
142961.656 485732.531 12.569 2584 
142961.891 485732.031 3.28 2589 
142963.172 485735.875 14.666 2599 
142963.547 485736.781 15.509 2606 
142961.844 485732.344 13.038 2685 
142963.688 485735.469 5.856 2716 
142961.688 485730.344 4.259 2776 
142961.094 485728.469 6.298 2925 
142963.219 485733.75 14.818 2943 
142962.094 485730.094 7.179 3023 
142963.703 485734.344 15.817 3041 
142962.172 485729.625 7.557 3097 
142962.25 485728.844 8.228 3216 
142963.641 485731.312 10.468 3302 
142963.766 485731.562 10.432 3304 
142964.5 485733.219 11.641 3310 
142965.219 485732.875 9.382 3514 
142965.109 485732.594 14.195 3582 
142965.156 485731.594 15.479 3696 
142965.281 485731.812 15.377 3697 
142966.719 485731.656 11.073 4024 
142966.594 485730.531 7.946 4086 
142966.812 485730.969 7.679 4090 
142967.016 485730.719 7.742 4138 
142967.594 485731.25 9.678 4251 
142957.078 485735.562 4.537 5067 
142957.719 485736.281 3.19 5194 
142958.422 485734.156 9.005 5441 
142958.422 485733.656 9.377 5445 
142959.312 485730.969 8.468 5703 
142959.391 485737.688 14.338 5838 
142959.922 485730.531 9.526 5872 
142960.078 485735.906 3.889 5927 
142960.141 485738.969 5.377 6018 
142959.906 485736.969 13.803 6037 
142960.375 485731.156 9 6064 
142960.812 485735.562 1.503 6141 
142960.828 485731.906 5.667 6163 
142960.594 485738.125 10.087 6231 
142960.953 485732.531 7.842 6261 
142960.812 485738.031 9.92 6325 
142961.312 485735.281 0.567 6336 
142960.812 485735.062 13.196 6345 
142961.516 485735.219 2.42 6433 
142961.391 485734.781 5.946 6439 
142961.625 485736.094 7.838 6533 
142961.812 485734.719 4.816 6540 
142961.484 485735.094 12.784 6549 
142962 485732.25 3.147 6561 
142961.625 485733.031 11.814 6569 
142962.016 485731.281 3.96 6573 
142961.797 485739.438 6.134 6619 
142962.031 485736.375 3.77 6635 
142961.969 485735.531 6.546 6643 
142961.844 485733.562 12.178 6659 
142961.734 485732.844 15.696 6668 
142962.188 485730.25 7.4 6674 
142962.234 485728.25 8.713 6687 
142962.266 485737.531 1.584 6726 
142962.109 485737.188 5.775 6732 
142962.266 485734.812 4.768 6745 
142961.734 485736.625 16.227 6746 
142962 485734.094 12.689 6757 
142962.484 485730.906 4.17 6766 
142962.422 485728.688 8.537 6784 
142961.969 485737.781 14.752 6851 
142962 485736.75 15.151 6855 
142962.656 485729.375 7.551 6887 
142962.969 485737.375 4.997 7042 
142962.656 485737.469 13.156 7048 
142962.672 485737.125 12.88 7050 
142963.062 485734.094 6.773 7067 
142963.094 485732.188 8.418 7084 
142963.016 485741.031 5.141 7136 
142963.25 485740.75 5.868 7242 
142963.5 485733.75 8.195 7278 
142963.844 485733.312 9.227 7359 
142963.875 485731.375 10.559 7369 
142963.906 485730.875 10.715 7372 
142964.172 485731.188 10.957 7462 
142963.984 485738.812 11.699 7517 
142964 485738.531 11.725 7518 
142964.281 485733.406 10.458 7539 
142964.609 485740.312 9.17 7690 
142964.719 485733.469 15.003 7733 
142964.703 485733.312 15.572 7735 
142964.875 485732.406 12.021 7739 
142964.766 485732.344 14.904 7741 
142964.828 485740.25 9.632 7784 
142965.203 485732.438 14.432 7917 
142965.203 485731.812 15.333 7922 
142966.656 485732.062 6.821 8236 
142966.828 485730.969 10.1 8334 
142967.484 485731.281 9.163 8500 
142960.688 485735.312 -4.109 9201 
142960.703 485734.875 -3.904 9203 

2 1
17 16
117 19
93 24
30 25
113 27
120 30
105 36
43 46
101 48
48 52
100 53
66 65
142 70
142 71
5 78
11 80
37 83
92 90
35 98
28 99
101 106
61 108
23 110
43 112
106 114
64 116
29 120
122 121
66 129
132 133
136 137
69 141
146 147
125 126
21 93
97 20
96 105
91 32
40 89
135 140
102 58
64 109
129 131
79 11
37 33
92 8
95 84
93 88
24 95
24 47
28 94
14 12
19 118
105 97
112 35
41 101
52 56
63 119
113 42
36 45
46 123
30 22
129 130
128 134
67 138
141 142
74 73
74 75
145 76
86 82
86 9
112 96
95 43
89 31
91 39
106 28
52 51
123 127
127 128
11 7
79 4
2 0
5 77
13 5
6 3
6 2
13 6
38 18
87 26
38 44
89 38
37 50
88 13
39 81
87 37
16 10
96 79
39 87
17 92
35 91
20 17
95 40
58 59
104 85
16 86
41 34
47 100
100 102
40 61
21 23
95 104
102 115
61 63
14 103
117 15
118 113
36 41
114 107
63 64
29 111
104 29
126 14
122 49
123 124
23 125
132 122
46 57
133 117
49 54
136 60
128 66
49 55
137 62
127 68
134 67
120 135
140 132
67 69
141 139
69 136
47 143
143 74
144 72
143 145
145 144
146 21
