ply
format ascii 1.0
element vertex 177
property float x
property float y
property float z
element edge 176
property int vertex1
property int vertex2
end_header

142944.906 485760.75 6.671 
142944.438 485758.938 5.109 
142944.453 485758.312 4.395 
142943.391 485756.062 7.154 
142944.062 485757.344 5.801 
142944.469 485758.062 4.356 
142944.703 485758.031 4.243 
142945.688 485760.062 4.243 
142944.438 485756.906 5.483 
142946.016 485759.5 3.63 
142948.016 485764.125 8.167 
142944.984 485757.188 4.773 
142945.406 485757.938 3.471 
142945.922 485759.938 12.339 
142945.281 485757.656 9.25 
142945.688 485757.875 3.076 
142945.703 485757.844 10.015 
142947.828 485762.219 14.373 
142947.016 485759.875 11.293 
142946.75 485758.406 2.043 
142946.859 485758.625 1.949 
142948.656 485762.969 7.752 
142947.688 485760.812 11.731 
142948.344 485762.406 14.025 
142948.891 485762.906 7.626 
142948.703 485761.562 13.306 
142949.266 485762.125 7.305 
142949.5 485762.688 8.159 
142946.641 485756.688 12.856 
142949.047 485760.906 12.864 
142947.719 485757.938 15.969 
142947.344 485756.688 14.546 
142948.094 485757.344 10.889 
142948.875 485757.844 0.372 
142949.266 485759.656 10.084 
142949.016 485757.781 2.589 
142949.359 485759.25 9.992 
142949.562 485759.625 9.301 
142949.828 485760.688 14.549 
142949.625 485759.156 8.857 
142950.125 485760.281 9.768 
142949.344 485758.5 11.421 
142949.078 485757.031 2.427 
142949.234 485757.531 4.039 
142949.219 485757.344 8.285 
142948.922 485755.688 5.585 
142949.391 485756.594 5.237 
142948.609 485754.281 3.796 
142948.094 485752.969 4.659 
142948.75 485754.938 10.407 
142948.547 485753.875 4.141 
142948.938 485755.281 9.646 
142947.625 485752.375 14.111 
142947.766 485752.094 8.149 
142948.109 485753.125 11.264 
142948.344 485753.594 11.403 
142948.141 485752.531 4.968 
142948.688 485754.312 11.23 
142948.625 485753.719 12.551 
142948.734 485753.844 11.854 
142950.109 485757.156 16.26 
142948.891 485753.719 12.694 
142950.344 485755.688 2.787 
142951.109 485757.656 9.016 
142950.609 485756.469 13.221 
142950.719 485756.688 13.078 
142951.656 485758.312 9.617 
142951.562 485757.719 12.893 
142950.844 485754.656 3.62 
142950.984 485755.75 14.6 
142951.375 485756.312 12.111 
142951.438 485755.938 12.969 
142951.734 485755.812 6.144 
142952.344 485757.219 7.293 
142952.266 485756.781 4.522 
142952.141 485756 5.738 
142951.359 485754.656 13.464 
142951.531 485754.125 4.519 
142952.922 485757.094 8.204 
142950.297 485751.406 11.195 
142952.859 485755.594 7.232 
142952.922 485755.125 1.293 
142951.625 485752.219 4.847 
142952.953 485755.312 11.934 
142953.406 485755 12.247 
142952.188 485751.156 4.062 
142954.625 485756.844 10.36 
142954.016 485755.188 8.923 
142954.141 485755.031 9.592 
142952.828 485751.062 4.912 
142943.078 485754.688 7.892 
142943.438 485755.812 7.039 
142943.891 485758.531 4.607 
142944.375 485760.969 4.948 
142944.562 485756.25 5.843 
142945.016 485757.344 3.285 
142944.734 485758.125 9.628 
142945.016 485757.719 9.062 
142945.422 485760.5 4.614 
142945.438 485756.406 9.68 
142945.656 485760.156 5.258 
142945.656 485759.5 12.431 
142946.297 485759.531 3.493 
142946.344 485759.688 12.034 
142946.609 485756.312 8.969 
142946.422 485756.312 13.946 
142946.484 485760.969 12.951 
142947.016 485758.688 1.918 
142946.859 485756.688 12.799 
142946.844 485756.312 13.678 
142946.969 485756.062 16.671 
142947.938 485752.938 4.945 
142947.609 485756.438 15.131 
142948.344 485757.781 0.643 
142948.125 485753.5 11.345 
142948.438 485752.5 11.934 
142948.641 485760.062 7.033 
142949.031 485757.812 -0.191 
142948.984 485757.656 0.649 
142948.969 485757.562 1.484 
142948.984 485757.25 1.401 
142948.781 485755.938 8.461 
142948.922 485754.781 6.228 
142948.75 485754.094 11.819 
142948.875 485752.312 10.658 
142948.969 485759.281 6.153 
142948.938 485758.906 7.416 
142949.016 485755.094 10.019 
142948.984 485754.719 10.859 
142949.234 485758.219 5.077 
142949.297 485757.562 4.308 
142949.234 485757.562 6.051 
142949.219 485756.969 7.242 
142949.219 485756.719 7.441 
142949.297 485755.75 6.439 
142949.156 485753.094 13.454 
142949.359 485751.719 10.129 
142949.406 485758.188 6.772 
142949.25 485756.062 13.611 
142949.594 485752.875 9.083 
142949.75 485758.156 7.08 
142949.641 485761.094 12.681 
142950.172 485758.188 2.684 
142949.578 485760 15.732 
142949.562 485758.938 17.303 
142949.797 485759.281 16.211 
142950.094 485757.344 11.009 
142949.828 485757.812 17.283 
142949.984 485755.906 15.533 
142949.984 485755.719 16.016 
142950.375 485751.781 10.72 
142950.188 485756.969 16.565 
142950.656 485751.75 11.14 
142950.734 485756.625 13.052 
142950.672 485756.156 15.056 
142951.234 485753.781 3.888 
142951.328 485756.531 4.384 
142951.062 485756.375 11.347 
142950.953 485756.5 13.855 
142950.969 485756.25 13.789 
142951.516 485752.781 4.258 
142951.516 485751.875 5.283 
142951.172 485755.406 14.848 
142951.703 485753.312 3.869 
142951.719 485752.094 5.136 
142952 485752.312 3.821 
142952.016 485751.75 4.033 
142952.219 485757.188 7.015 
142952.656 485757.062 7.714 
142952.734 485755.406 7.685 
142953.031 485756.75 8.3 
142953.125 485755.5 7.473 
142953.219 485755.375 11.944 
142954.062 485756.906 9.826 
142954.188 485755.125 8.943 
142948.312 485757.625 -4.19 
142948.078 485757.219 -4.179 

91 3
6 5
102 9
97 14
20 19
107 20
24 21
141 29
117 33
39 37
123 59
58 61
153 64
153 65
167 73
172 83
7 98
98 100
55 114
125 116
33 118
118 119
118 120
136 124
51 127
43 130
129 131
132 133
137 140
143 145
60 151
69 154
71 159
82 164
78 170
80 171
87 174
175 176
36 34
119 35
119 42
46 45
48 111
49 128
154 148
159 158
70 153
155 163
150 152
160 165
8 4
11 8
15 95
100 0
14 99
108 28
108 109
48 56
33 113
47 50
57 55
45 122
123 58
125 126
43 46
58 135
119 142
131 137
131 132
132 44
26 27
39 36
126 39
36 41
37 40
150 79
82 161
157 70
69 162
70 71
165 166
168 63
167 168
80 169
2 92
91 90
4 97
97 96
11 94
12 11
103 101
102 7
103 13
26 24
129 125
130 129
51 49
46 134
55 115
148 149
156 74
168 78
166 85
173 86
87 88
8 91
2 1
6 2
12 6
7 93
15 12
14 16
99 104
107 102
20 15
0 18
109 105
18 103
18 106
33 107
31 110
32 108
31 112
32 31
47 48
25 17
122 53
55 54
58 52
42 47
49 57
57 123
25 23
35 43
44 32
133 121
24 10
34 22
41 30
133 51
35 26
29 25
120 62
134 139
139 136
27 141
145 144
137 146
141 38
38 143
146 138
60 147
62 68
139 150
42 156
154 60
68 77
68 155
155 160
117 81
159 69
160 82
63 66
146 67
156 75
157 76
130 167
75 72
75 80
166 89
172 157
78 173
80 87
172 84
173 172
175 117
