ply
format ascii 1.0
element vertex 143
property float x
property float y
property float z
element edge 142
property int vertex1
property int vertex2
end_header

142949.75 485761.125 13.757 
142949.516 485760.5 13.376 
142954 485756.719 10.623 
142952.141 485757.719 12.978 
142949.312 485759.938 10.996 
142948.656 485760.25 6.344 
142949.422 485759.219 9.175 
142953.984 485755.094 8.87 
142953.953 485755.031 9.547 
142954.172 485754.875 9.071 
142948.141 485760.312 6.464 
142948.812 485759.656 6.916 
142952.234 485756.781 4.616 
142949.906 485757.469 17.253 
142949.453 485758.25 8.837 
142950.109 485757.375 11.237 
142950.172 485757.25 11.746 
142951.359 485756.031 12.954 
142949.938 485756.906 16.693 
142950.234 485757 9.896 
142949.875 485756.688 15.795 
142948.906 485758.656 3.307 
142949.375 485757.719 7.491 
142951.047 485756.562 4.426 
142947.625 485758.531 14.47 
142949.656 485756.875 12.641 
142948.781 485758.562 1.847 
142949.328 485757.812 3.977 
142949.25 485757.625 6.056 
142950.125 485755.875 14.404 
142949.922 485755.938 15.531 
142949.016 485757.688 2.144 
142949.062 485757.562 2.697 
142949.188 485757.344 3.679 
142949.234 485757.25 4.257 
142945.391 485760.188 5.201 
142946.734 485759.219 2.809 
142948.688 485757.688 0.399 
142949.594 485756.719 1.725 
142949.203 485756.688 5.19 
142947.844 485757.062 12.691 
142946.453 485759.156 2.352 
142946.922 485758.781 1.924 
142948.781 485757.344 -0.169 
142948.922 485757.188 0.147 
142948.125 485757.625 2.612 
142947.359 485756.938 14.583 
142948.75 485755.875 8.585 
142947.328 485756.625 8.69 
142951.016 485753.781 3.909 
142948.219 485755.25 9.626 
142947.141 485756.844 1.231 
142946.125 485756.406 13.202 
142948.609 485754.312 11.63 
142948.781 485753.906 10.345 
142948.875 485753.5 13.323 
142948.141 485753.656 12.556 
142947.984 485753.375 12.615 
142944.625 485756.344 10.598 
142948.188 485753.469 7.338 
142944.188 485756.875 6.052 
142944.344 485756.688 6.422 
142948.062 485752.844 4.859 
142943.484 485755.531 7.095 
142947.422 485752.344 7.744 
142948.766 485752.062 11.503 
142947.906 485753.438 13.736 
142946.047 485755.969 15.41 
142948.344 485752.75 7.335 
142946.484 485756.281 16.872 
142948.406 485753.875 12.446 
142946.25 485756.75 13.888 
142948.641 485753.781 11.113 
142948.531 485753.969 11.544 
142946.391 485756.344 9.155 
142946.609 485756.562 12.991 
142946.516 485756.75 13.438 
142950.094 485752.25 9.578 
142948.719 485754.125 10.8 
142947.938 485756.406 15.473 
142947.281 485756.875 8.606 
142947.047 485758.281 13.973 
142947.766 485757.812 13.66 
142949.609 485756.562 16.257 
142950.672 485755.812 16.218 
142950.016 485756.438 14.619 
142947.281 485759.469 11.694 
142951.078 485755.531 14.722 
142950.812 485755.938 15.297 
142948.656 485758.312 12.873 
142951.391 485754.281 4.224 
142950.172 485755.625 2.92 
142948.984 485756.844 0.968 
142949.281 485757.25 6.831 
142949.359 485757.125 1.338 
142949.375 485757.219 2.27 
142947.188 485761.344 13.036 
142949.656 485757.438 2.612 
142949.75 485757.562 4.496 
142949.641 485757.969 6.432 
142949.578 485758.125 6.968 
142949.484 485758.812 8.277 
142948.562 485760.344 11.094 
142951.312 485756.094 0.864 
142953.25 485754.781 9.708 
142952.031 485755.844 5.902 
142953.531 485754.875 7.27 
142948.828 485761.531 13.509 
142954.516 485754.594 10.202 
142949.312 485760.438 5.2 
142954.344 485755.438 11.869 
142949.641 485761.406 12.601 
142949.375 485762.312 7.644 
142948.797 485763.031 7.889 
142949.562 485762.719 8.293 
142948.375 485757.719 -4.384 
142948.344 485757.156 -4.075 
142952.781 485755.312 6.586 
142949.062 485756.812 8.038 
142947.812 485757.219 10.69 
142947.031 485756.969 12.289 
142949.375 485758.219 7.167 
142948.109 485753.031 4.776 
142948.406 485754.469 4.12 
142952.516 485757 8.478 
142949.75 485757.562 4.496 
142951.812 485756.156 12.555 
142952.016 485756.188 12.377 
142952.766 485756.406 11.721 
142951.234 485755.812 13.711 
142948.781 485754.688 10.181 
142948.844 485755.25 9.617 
142948.656 485753.562 11.159 
142949.016 485757.625 8.229 
142946.422 485756.781 13.544 
142949.406 485758.469 7.605 
142948.938 485755.812 5.77 
142945.719 485760.062 6.354 
142945.422 485760.156 5.33 
142944.969 485757.406 4.866 
142945.75 485757.969 3.701 
142945.969 485758.125 3.375 
142946.859 485758.75 2.017 

9 8
7 9
5 10
101 14
83 18
33 27
33 34
41 36
43 37
42 41
80 48
70 56
56 57
60 61
75 76
54 78
20 83
92 94
38 95
115 116
112 114
87 88
28 99
32 21
82 24
40 82
31 45
44 92
75 52
72 73
56 66
53 70
48 74
47 50
93 80
29 85
16 25
19 15
101 6
23 12
109 5
112 113
9 108
23 105
28 93
44 103
115 43
46 79
44 51
70 55
60 63
59 68
59 64
76 67
74 58
46 69
47 54
39 77
82 81
16 29
48 40
36 35
88 84
14 89
22 19
105 104
6 4
4 102
15 3
21 109
108 110
6 111
90 49
44 38
37 44
92 97
32 23
92 32
88 30
31 33
92 31
20 13
88 20
100 16
93 100
93 22
72 53
33 39
1 0
114 1
31 112
1 107
86 96
105 117
117 106
117 7
22 118
118 47
119 46
119 120
120 75
28 121
121 11
38 91
91 90
122 62
32 123
123 122
98 124
124 2
34 125
125 98
126 17
127 126
2 128
128 127
17 129
129 87
34 28
130 72
118 131
131 130
72 132
132 65
22 133
133 119
120 134
134 71
121 135
135 101
39 136
136 59
37 26
37 42
137 86
35 138
138 137
139 60
140 139
141 140
42 142
142 141
