ply
format ascii 1.0
element vertex 272
property float x
property float y
property float z
element edge 271
property int vertex1
property int vertex2
end_header

142911.109 485826.125 1.07 
142911.359 485826.781 2.39 
142912.375 485825.312 11.08 
142909.781 485828.375 16.11 
142907.75 485828.375 11.77 
142910.219 485831.656 4.51 
142908.828 485829.156 15.13 
142910.859 485830.75 4.85 
142907.594 485828.344 3.41 
142908.812 485827.969 10.63 
142908.656 485828.031 1.27 
142910.828 485829.5 3.82 
142909.328 485827.875 10.01 
142909.406 485827.781 0.64 
142910.719 485828.094 17.04 
142910.391 485828.062 3.93 
142912.344 485828.906 8.04 
142911.844 485828.562 8.23 
142909.906 485826.938 16.71 
142910.031 485827.219 6.95 
142906.547 485823.969 8.73 
142910.891 485826.938 15.53 
142910.75 485827 6.57 
142911.016 485826.594 15.91 
142911.078 485826.969 -0.52 
142908.281 485824.594 14.77 
142911.344 485826.656 12.47 
142911.344 485826.875 1.06 
142911.516 485826.5 12.01 
142911.016 485826.281 4.85 
142911.156 485826.25 3.06 
142912.109 485826.344 12.56 
142911.25 485825.938 -0.28 
142912.578 485826.406 14.65 
142911.328 485825.594 8.53 
142909.5 485824.25 7.34 
142913.031 485826.25 16.8 
142912.422 485823.469 16.56 
142913.141 485824.094 5.78 
142912.391 485822.812 7.48 
142910.969 485821.062 15.35 
142912.609 485821.375 7.98 
142911.969 485820.812 11.09 
142912.453 485820.688 6.56 
142914.547 485821.469 10.56 
142910.797 485826.75 -4.41 
142911.109 485830.5 4.219 
142912.5 485828.688 8.688 
142915.953 485824.875 13.742 
142912.906 485827.156 15.409 
142915.969 485824.594 13.024 
142912.156 485828.375 7.655 
142908.453 485830.562 12.901 
142911.438 485826.625 18.514 
142908.906 485829.469 11.616 
142913.156 485826.062 7.108 
142911.375 485826.969 13.39 
142911.109 485826.75 17.247 
142915.406 485823.406 11.937 
142908.359 485828.719 13.352 
142911.25 485826.656 1.072 
142911.484 485825.469 9.134 
142912.859 485823.406 15.802 
142911.094 485826.469 0.003 
142911.094 485826.375 0.782 
142911.766 485824.75 4.308 
142911.266 485824.469 10.685 
142911.016 485824.156 15.397 
142914.125 485821.844 10.505 
142914.234 485821.5 12.517 
142907.422 485828.375 3.414 
142912.969 485822.531 9.423 
142907.328 485827.219 11.033 
142912.531 485822.719 8.411 
142907.531 485826.75 9.826 
142907.875 485826.469 9.58 
142911.562 485822.438 14.682 
142913.906 485820.469 12.985 
142913.938 485820.375 13.628 
142908.375 485824.75 15.026 
142909.5 485824.219 6.944 
142912 485821.094 10.305 
142910.984 485819.938 12.388 
142906.531 485823.969 9.313 
142907.984 485822.844 9.182 
142907.422 485824.094 8.947 
142909.047 485824.5 14.313 
142910.656 485823.312 17.265 
142912.984 485819.844 8.943 
142911.547 485822.719 13.479 
142910.438 485824.594 17.482 
142913.078 485820.812 7.917 
142912.859 485821.094 7.993 
142913.938 485820.438 13.288 
142913.938 485820.938 9.694 
142911.578 485825.156 9.745 
142909.406 485827.875 9.805 
142909.422 485827.938 10.436 
142910.438 485827.062 13.7 
142908.922 485827.938 0.913 
142910.141 485827.312 7.887 
142910.062 485827.438 8.312 
142909.016 485829.062 10.671 
142911.906 485826.281 10.068 
142912.688 485826.531 14.472 
142915.203 485824.875 14.144 
142913.047 485827.562 14.209 
142914.234 485825.844 1.865 
142911.047 485826.594 -0.696 
142908.062 485828.125 1.967 
142908.625 485830.406 12.387 
142907.797 485828.188 11.482 
142908.469 485829.594 11.249 
142907.859 485827.688 10.846 
142908.094 485828.562 14.495 
142908.672 485829.406 11.095 
142906.469 485823.875 8.991 
142908.75 485827.844 1.007 
142910.484 485831.906 4.615 
142910.656 485831.625 4.435 
142909.141 485828.719 10.193 
142909.484 485827.844 0.304 
142911.109 485830.906 4.533 
142910.812 485829.625 3.798 
142911.609 485831.469 5.242 
142907.562 485823.156 11.567 
142908.016 485824.469 15.031 
142909.484 485826.844 8.194 
142907.453 485822.25 10.549 
142908.562 485823.688 1.837 
142911.078 485829.156 3.451 
142907.156 485820.938 10.486 
142907.484 485821.719 11.386 
142907.938 485822.469 9.423 
142908.156 485822.844 8.855 
142910.781 485827.438 -0.223 
142911.141 485828.531 3.078 
142911.359 485828.875 1.776 
142908.922 485823.562 7.606 
142910.125 485825.219 4.9 
142911.281 485827.469 2.804 
142908.344 485821.094 8.744 
142909.156 485823.688 17.001 
142909.141 485822.688 7.979 
142910.406 485825.062 4.937 
142911.344 485826.656 1.306 
142908.859 485822.125 13.34 
142911.375 485827.25 11.461 
142911.375 485826.531 4.81 
142908.688 485821.031 10.653 
142908.781 485821.188 10.2 
142909.25 485822.031 9.008 
142910.297 485823.812 4.858 
142912.547 485829.062 9.671 
142909.938 485823.562 15.661 
142908.953 485820.344 11.624 
142910.109 485822.812 12.331 
142910.547 485824.031 14.992 
142911.016 485824.688 12.077 
142911.656 485825.688 8.283 
142911.172 485824.594 12.902 
142911.516 485825 9.92 
142913.234 485827.875 2.772 
142910.516 485823.406 17.343 
142911.094 485824.219 13.822 
142912.219 485826.594 13.635 
142911.266 485823.844 11.586 
142912.031 485824.094 5.513 
142912.625 485826.375 15.221 
142912 485823.938 14.193 
142913.594 485826.469 12.623 
142910.906 485820 11.981 
142911.484 485821.406 13.955 
142912.422 485823.469 14.824 
142912.406 485822.75 8.187 
142914.312 485826.094 1.921 
142911.016 485819.656 11.422 
142911.609 485821.156 13.788 
142913.969 485825.562 8.532 
142913.547 485825 14.26 
142914.688 485826.125 2.063 
142912.5 485821.375 5.902 
142912.844 485822.469 9.326 
142911.766 485819.719 11.825 
142913.141 485822.406 9.928 
142912.719 485820.75 8.307 
142914.172 485823.938 12.932 
142913.656 485822.031 11.348 
142913.781 485821.375 9.653 
142913.906 485821.844 11.695 
142913.938 485821.125 9.722 
142914.188 485821.094 12.374 
142914.688 485821.281 10.451 
142914.656 485821.062 14.224 
142914.891 485821.625 14.867 
142906.078 485823.5 9.326 
142906.938 485826.031 10.725 
142907.109 485822.438 11.085 
142907.219 485826.312 9.833 
142907.625 485828 2.748 
142907.531 485823.375 11.685 
142907.625 485822.188 10.807 
142907.859 485824.062 7.923 
142908.203 485824.188 7.679 
142908.109 485827.688 10.671 
142908.797 485824.094 1.433 
142908.625 485820.312 11.161 
142908.391 485829.844 11.356 
142909.25 485824.875 5.288 
142908.859 485825.375 15.061 
142909.234 485823.781 7.259 
142908.906 485829.656 15.507 
142909.078 485826.688 14.833 
142909.219 485824.5 14.158 
142909.438 485827.906 9.742 
142909.719 485825.625 5.613 
142909.469 485824.406 13.661 
142909.703 485827.812 9.561 
142909.578 485826.781 14.405 
142909.688 485823.5 16.072 
142909.938 485826.875 13.978 
142910.375 485825.344 4.69 
142910.484 485828.125 3.705 
142910.047 485825.656 18.358 
142910.422 485831.531 4.167 
142910.688 485828.344 1.649 
142910.891 485826.438 -1.032 
142910.734 485825.656 3.971 
142910.719 485819.531 12.541 
142910.969 485828.031 1.442 
142910.578 485824.562 16.701 
142910.672 485824.094 14.894 
142910.625 485823.531 16.872 
142911.062 485830.938 4.212 
142911.062 485830.688 4.334 
142910.797 485827.594 15.629 
142910.828 485827.219 15.109 
142910.828 485826.531 16.002 
142911.359 485819.688 11.321 
142911.328 485831 4.662 
142911.453 485821.562 14.198 
142911.641 485820.156 10.905 
142911.312 485828.125 14.621 
142911.656 485823.438 12.21 
142911.844 485820.594 10.785 
142912.141 485824.156 5.432 
142912.125 485820.719 10.579 
142912.188 485828.406 7.933 
142912.453 485826.594 3.16 
142912.234 485825.281 10.608 
142912.172 485823.562 14.523 
142912.625 485821 6.101 
142912.641 485820.75 6.202 
142912.406 485825.625 12.102 
142912.969 485820 8.737 
142912.656 485826.25 15.352 
142912.797 485823.312 15.405 
142913.297 485826.156 7.465 
142912.984 485826.125 14.998 
142913.641 485826.938 4.098 
142913.578 485825.469 7.867 
142914.281 485826.188 1.867 
142914.125 485821.75 11.959 
142914.141 485820.719 12.702 
142914.344 485824 12.881 
142914.469 485821.562 12.794 
142914.891 485826.344 2.223 
142914.656 485825.25 9.765 
142915.016 485824.594 10.499 
142915.344 485824.406 10.93 
142915.484 485825.094 12.076 
142915.688 485825.125 12.499 

64 0
121 13
60 27
64 60
8 70
182 71
174 73
75 74
171 82
116 83
134 84
213 86
232 87
254 88
77 93
190 94
214 96
12 97
48 105
226 108
115 112
20 116
99 117
119 118
234 122
11 123
221 139
60 145
231 157
95 161
87 163
245 167
177 172
261 175
264 186
44 192
125 200
217 214
234 233
46 234
23 237
172 240
51 247
251 252
168 255
189 262
270 271
25 79
226 32
122 7
59 114
12 9
99 10
92 91
93 78
175 107
222 15
210 138
252 43
111 4
62 37
21 23
236 235
110 52
112 207
113 72
6 211
233 224
96 12
203 202
46 239
229 225
84 133
22 19
247 17
231 67
33 258
245 38
171 228
175 180
238 176
246 244
256 62
69 265
199 8
204 113
10 109
25 126
218 212
100 101
98 220
108 63
28 26
244 241
81 246
181 251
41 92
104 33
71 184
187 189
191 263
261 266
50 48
80 35
33 168
149 206
122 119
121 99
198 196
51 16
1 30
63 64
221 144
61 103
159 34
230 90
260 178
176 171
239 124
100 127
145 1
184 68
262 69
39 174
89 76
202 85
151 150
150 149
201 132
128 201
240 40
154 219
246 42
67 230
250 173
114 6
265 193
23 57
120 102
115 54
249 2
28 31
255 36
109 199
224 5
101 217
11 46
128 197
197 125
205 129
133 131
220 218
136 130
24 135
213 209
235 14
27 229
210 143
216 213
236 21
26 56
149 155
230 223
164 231
159 61
31 165
95 249
166 243
55 257
243 89
55 260
173 256
241 238
41 185
185 254
268 269
263 77
68 44
58 264
193 194
20 195
202 20
75 198
133 128
204 111
127 75
138 134
143 141
132 146
207 110
102 115
9 59
96 204
80 203
86 25
143 151
32 205
80 210
214 120
139 208
219 142
139 215
144 80
144 152
135 121
22 100
98 3
227 29
227 221
157 154
21 18
130 11
229 137
140 222
108 24
29 22
30 227
158 216
166 156
140 136
1 140
29 148
26 98
158 160
160 164
67 232
82 177
56 236
61 95
161 158
161 66
66 166
30 51
56 242
148 159
103 147
57 53
0 65
160 169
244 183
1 248
249 28
65 245
167 39
245 181
169 250
174 81
39 41
47 153
247 47
31 106
148 55
165 104
2 253
73 182
27 162
248 259
104 49
103 170
184 187
2 179
182 188
63 261
188 190
262 191
178 267
267 268
267 270
269 58
271 50
45 226
