ply
format ascii 1.0
element vertex 321
property float x
property float y
property float z
element edge 320
property int vertex1
property int vertex2
end_header

142855.016 485920.438 18.24 
142854.625 485915.625 13.71 
142858.469 485918.625 11.55 
142848.578 485922.75 12.87 
142847.844 485920.812 12.2 
142856.062 485921.844 14.56 
142853.219 485922.281 8.14 
142856.562 485921.938 12.82 
142852.031 485918.188 15.94 
142851.109 485916.219 15.26 
142848.594 485915.312 13.12 
142853.406 485917.25 14.2 
142850.516 485915.219 14.77 
142853.25 485920.5 1.39 
142847.656 485923.312 10.28 
142848.625 485922.875 9.29 
142849.172 485922.906 10.11 
142855.984 485927.406 9.48 
142849.531 485922.5 8.7 
142855.484 485925.188 10.82 
142849.656 485920.906 10.12 
142850.703 485921.125 14.33 
142852.938 485920.719 -3.71 
142855.75 485924.594 7.75 
142854.531 485922.375 12.7 
142848.562 485917.625 11.42 
142853.859 485921.125 7.77 
142853.312 485920.75 5.61 
142852.984 485920.562 0.41 
142855.125 485921.75 15.09 
142854.047 485921.031 8.08 
142849.156 485917.375 13.85 
142856.312 485922.094 13.07 
142852.797 485919.562 3.97 
142856.484 485921.844 12.35 
142857.859 485922.344 13.57 
142849.812 485916.312 6.32 
142857.656 485921.156 7.04 
142859.531 485921.25 14.7 
142858.844 485920.75 11.89 
142858.312 485920.375 9.93 
142853.844 485917.156 3.37 
142850.125 485914.344 12.32 
142851.547 485915.031 12.51 
142850.984 485914.594 13.87 
142854.344 485916.375 15.14 
142851.453 485914.281 13.14 
142851.25 485914.094 12.86 
142851.484 485914.312 9.46 
142851.281 485914.156 9.06 
142858.828 485919.156 12.04 
142858.938 485918.906 13.46 
142851.688 485913.594 10.19 
142851.797 485913 11.28 
142856.984 485915.906 9.39 
142859.047 485916.781 10.36 
142854.688 485913.594 5.56 
142857.234 485914.906 12.02 
142854.906 485913.25 5.37 
142857.062 485914.375 11.56 
142857.719 485926.594 11.409 
142858.891 485926.188 5.658 
142856.25 485927.188 13.27 
142860.266 485923.562 11.959 
142856.281 485926.781 12.707 
142855.172 485927.75 10.076 
142856.281 485926.438 12.096 
142857.797 485925.156 10.867 
142860.078 485923.062 10.581 
142859.375 485924.062 3.984 
142855.891 485925.938 10.484 
142855.234 485925.469 15.541 
142859.375 485921.875 12.958 
142853.344 485926.844 12.128 
142858.938 485921.562 12.345 
142859.875 485920.5 13.915 
142855.484 485924.406 6.993 
142852.609 485925.562 13.536 
142853.594 485924.719 12.751 
142853.016 485924.625 13.109 
142857.656 485921 7.168 
142857.547 485920.594 11.416 
142858.75 485919.531 10.874 
142852.688 485924.406 13.458 
142853.141 485924.156 11.746 
142854 485923.125 13.742 
142857.656 485920.312 8.498 
142857.453 485920.219 7.788 
142858.078 485917.656 15.783 
142859.234 485916.75 10.601 
142856.969 485917.781 16.688 
142857.219 485917.562 16.452 
142851.406 485922.594 16.331 
142855.219 485920 3.54 
142848.859 485922.812 10.091 
142851.969 485919.031 17.382 
142855.297 485915.969 14.1 
142857.203 485914.469 11.823 
142848.219 485922.75 9.653 
142853.25 485918.906 2.371 
142849.625 485920.781 10.402 
142848.719 485920.969 11.78 
142853.422 485916.312 13.762 
142851.594 485918.562 6.844 
142854.094 485915.375 13.673 
142853.844 485916 7.137 
142853.844 485915.219 13.671 
142853.625 485914.531 8.7 
142854.547 485913.625 5.316 
142851.266 485915.562 10.242 
142851.656 485914.906 12.404 
142854.359 485912.969 7.7 
142851.109 485915.312 9.734 
142850.812 485915.188 13.521 
142851.422 485914.938 10.824 
142850.984 485915.062 10.337 
142851.297 485914.844 9.708 
142851.516 485914.844 8.009 
142849.688 485916.375 6.476 
142850.594 485913.938 10.518 
142851.562 485912.906 11.466 
142850.891 485913 12.74 
142850.969 485912.562 12.237 
142849.531 485913.062 10.332 
142850.391 485926.406 5.841 
142848.922 485922.312 8.633 
142849.281 485922.844 11.845 
142849.344 485922.281 8.593 
142850.766 485925.344 8.963 
142848.688 485920.688 12.245 
142850.531 485924.375 10.283 
142850.969 485924.688 4.014 
142852.172 485925.438 14.735 
142850.922 485921.406 6.202 
142852.594 485925.719 13.734 
142850.547 485921.156 15.44 
142851.094 485921.406 6.121 
142849.453 485917.75 9.773 
142852.812 485925.219 13.201 
142849.703 485917.5 9.72 
142851.141 485921.062 14.886 
142852.656 485924 12.085 
142848.594 485914.844 12.506 
142849.562 485916.312 6.371 
142850.688 485918.469 3.788 
142849.656 485916.219 6.316 
142851.906 485921.969 16.762 
142853.828 485925.094 13.059 
142850.953 485918.656 16.326 
142851.391 485918.656 6.832 
142850.766 485917.656 15.329 
142851.625 485918.625 6.588 
142850.219 485915.781 10.886 
142853.312 485922.906 16.575 
142852.797 485920.031 4.661 
142853.031 485920.188 0.782 
142853.047 485920.5 4.04 
142853.312 485920.938 2.368 
142851.219 485916.375 9.385 
142853.469 485920.906 6.868 
142855.078 485925.156 15.449 
142850.062 485913.375 9.693 
142854.781 485923.75 13.757 
142855.297 485924.625 11.363 
142855.438 485924.531 7.294 
142855.578 485924.5 7.76 
142855.969 485925.531 9.626 
142851.844 485915.812 5.796 
142852.625 485917.25 3.653 
142852.734 485917.469 3.417 
142854.906 485921.906 1.771 
142856.438 485926.25 12.85 
142852.188 485915.875 5.474 
142852.531 485916.5 4.591 
142854.031 485919.938 7.116 
142854.109 485919.656 7.814 
142854.609 485920.219 2.661 
142851.578 485914.094 8.713 
142851.594 485914.438 11.768 
142856.969 485925.031 9.804 
142852.984 485915.281 4.418 
142856.891 485923.438 2.893 
142851.734 485912.688 11.661 
142853.125 485915.844 13.419 
142855.156 485920.5 17.102 
142857.625 485924.469 3.997 
142857.719 485924.719 4.424 
142855.641 485919.906 4.364 
142857.875 485925.312 11.035 
142857.984 485925.531 10.871 
142854.125 485916.344 7.185 
142855.922 485919.906 4.699 
142858.266 485924.906 5.183 
142853.562 485914.312 5.157 
142853.547 485913.781 5.654 
142856.094 485918.969 3.612 
142856.609 485920.062 5.995 
142853.625 485913.219 6.316 
142854.266 485915.312 14.075 
142854.391 485915.594 14.261 
142856.984 485920.375 6.814 
142853.828 485912.969 6.708 
142859.25 485924.188 3.813 
142853.906 485912.688 8.55 
142859.734 485924.594 3.812 
142854.078 485912.688 8.268 
142855.875 485917.188 15.216 
142858.844 485922.188 8.783 
142858.625 485920.719 11.284 
142859.016 485921.688 12.614 
142859.766 485923.031 10.243 
142857.656 485917.938 7.194 
142859.172 485921.688 12.742 
142857.812 485917.75 7.513 
142857.891 485917.219 7.913 
142859.406 485920.688 10.538 
142858.734 485918.719 11.082 
142856.891 485914.5 11.216 
142858.25 485917.812 15.403 
142858.906 485918.875 12.042 
142859.016 485919.094 11.908 
142856.844 485913.875 11.749 
142857.375 485915.031 12.068 
142860.266 485920.156 14.618 
142859.266 485916.719 10.528 
142848.016 485915.375 13.357 
142848.422 485916.344 14.177 
142849.109 485913 10.274 
142848.875 485921.094 11.75 
142848.875 485920.531 12.557 
142849.094 485917.344 10.923 
142849.062 485921.094 11.314 
142849.188 485917.125 13.213 
142849.5 485913.062 10.197 
142849.375 485922.156 8.381 
142849.703 485924.562 5.819 
142850.109 485913.25 9.848 
142849.859 485926.406 6.235 
142850.391 485913.469 9.514 
142850.219 485924.906 4.829 
142850.344 485914.875 15.312 
142850.391 485926.5 5.927 
142850.516 485924.906 4.59 
142850.719 485918.031 8.123 
142850.672 485915.312 13.168 
142850.781 485926.219 5.352 
142850.844 485925.625 4.645 
142850.703 485924.688 9.832 
142851.203 485912.625 12.246 
142851.172 485924.562 3.896 
142851.203 485924.281 3.731 
142851.516 485914.625 8.14 
142851.453 485923.25 3.106 
142851.188 485918.656 16.541 
142851.688 485913.719 9.282 
142851.656 485920.906 7.369 
142851.938 485915.312 6.909 
142851.938 485914.844 7.855 
142851.781 485914.719 12.102 
142852.312 485915.969 5.272 
142852.469 485919.531 3.348 
142852 485918.844 17.17 
142852.656 485921.281 1.856 
142852.406 485924.094 12.408 
142852.969 485920.906 1.619 
142853.062 485918.031 2.999 
142852.641 485925.719 14.133 
142852.969 485919.312 13.868 
142853.547 485914.094 5.199 
142853.266 485917.719 14.69 
142853.281 485924.594 9.89 
142853.219 485924.375 12.056 
142853.578 485921.312 6.258 
142853.781 485920.906 1.344 
142853.547 485920.344 8.419 
142853.625 485915.25 13.268 
142853.828 485914.562 8.837 
142853.422 485924.812 12.951 
142854.25 485913.812 5.231 
142854.203 485912.844 8.115 
142854.234 485912.812 6.996 
142854.312 485921.781 9.433 
142855.109 485916.719 8.031 
142855.109 485927.844 9.927 
142855.297 485921.562 13.504 
142855.703 485919.969 4.424 
142855.547 485916.062 14.201 
142855.312 485927.875 9.813 
142855.406 485924.969 11.155 
142855.406 485924.688 11.309 
142855.547 485924.594 7.566 
142855.656 485926.812 9 
142855.469 485925.625 15.595 
142855.75 485924.938 8.701 
142856.094 485922.875 2.309 
142855.688 485920.688 16.29 
142855.656 485920.188 17.568 
142855.969 485926.938 9.242 
142856.016 485925.594 9.827 
142856.266 485925.875 10.068 
142856.812 485915.125 9.923 
142856.812 485914.875 10.256 
142856.359 485926.469 12.197 
142856.5 485922.312 14.196 
142856.891 485919.969 6.414 
142856.609 485917.938 16.778 
142857.688 485924.312 3.928 
142857.609 485917.938 14.258 
142857.891 485920.25 9.196 
142857.891 485920 9.469 
142858.125 485924.344 4.497 
142858.078 485918.031 14.334 
142858.312 485917.594 8.363 
142858.391 485925.094 5.214 
142858.469 485924.281 4.58 
142858.438 485920.469 10.498 
142858.75 485924.094 3.488 
142858.859 485921.969 8.644 
142859.078 485916.719 9.762 
142859.453 485922.719 9.684 
142859.391 485921.75 12.865 

216 2
26 30
7 32
80 37
110 43
47 46
49 48
220 50
108 56
283 65
202 69
292 71
320 72
218 88
224 89
91 90
261 95
59 97
20 100
228 101
106 104
275 106
278 108
258 110
36 118
53 120
248 122
233 123
234 127
249 131
77 134
21 140
145 143
33 154
272 159
71 160
289 163
76 164
290 165
259 172
306 185
104 198
205 203
279 205
317 207
74 209
209 212
220 219
57 222
55 224
129 229
161 236
124 241
141 263
134 266
193 268
11 269
13 273
78 277
111 279
287 283
187 285
96 286
19 288
288 289
164 290
166 298
66 302
90 305
192 313
212 320
94 16
15 94
151 103
104 1
185 186
196 304
102 11
51 311
290 23
213 312
198 199
183 102
254 52
125 98
245 124
101 129
231 228
250 249
84 271
264 157
99 260
291 297
244 113
298 70
298 299
117 251
177 49
248 121
295 296
268 194
304 200
308 309
315 81
318 55
127 15
233 227
234 125
139 137
36 145
124 237
49 238
113 12
136 133
21 135
151 149
177 254
172 167
167 256
256 257
178 258
92 146
28 155
110 183
84 141
174 274
201 280
159 26
105 190
78 147
108 58
285 191
32 284
303 5
59 221
200 80
213 214
311 307
67 188
309 40
319 210
242 239
88 91
211 213
266 132
101 4
298 19
188 189
179 67
148 253
150 8
113 9
12 240
208 39
48 116
34 7
5 29
295 184
155 13
126 3
127 18
1 96
280 111
10 226
10 225
142 10
239 235
237 128
128 247
20 231
230 25
229 21
138 77
136 255
277 79
271 78
13 264
9 150
157 156
297 17
253 261
238 161
116 115
116 112
26 281
293 166
256 117
114 178
182 248
52 53
258 275
32 303
306 310
310 314
107 276
181 316
199 45
316 202
81 34
86 308
40 315
207 319
309 82
40 215
212 38
300 301
214 54
50 51
301 217
51 218
82 220
217 59
97 57
98 14
232 31
137 230
152 142
94 126
152 232
236 233
243 139
149 20
119 42
133 234
109 152
48 119
246 245
131 242
247 130
149 243
112 158
112 109
43 244
249 246
150 148
115 114
46 44
252 250
251 177
178 47
141 92
169 36
53 182
156 136
260 144
172 105
257 107
260 33
168 173
173 259
262 252
265 169
169 168
168 180
264 262
154 151
99 265
265 41
180 193
79 83
154 27
155 99
11 267
194 197
271 138
6 270
27 272
197 201
6 84
272 6
268 278
13 176
27 174
174 175
273 170
190 282
29 153
176 93
24 85
86 24
70 73
93 187
163 162
157 76
184 0
291 287
170 294
93 195
290 291
23 293
5 295
64 292
307 206
70 66
293 179
294 181
285 196
54 300
64 62
302 64
302 171
181 306
200 87
187 211
87 86
166 60
186 192
312 318
313 61
80 317
315 208
82 216
209 35
208 74
202 204
39 75
210 68
75 223
68 63
22 28
