ply
format ascii 1.0
element vertex 228
property float x
property float y
property float z
property float i
element edge 227
property int vertex1
property int vertex2
end_header

142849.25 485926.531 6.563 271 
142849.797 485926.812 7.266 373 
142849.641 485924.969 5.149 479 
142847.656 485920.688 12.425 579 
142850.344 485925.875 7.864 598 
142850.641 485926.281 5.469 603 
142848.922 485922.312 8.633 656 
142850.438 485925.125 4.521 667 
142850.719 485925.562 8.607 741 
142849.438 485922.812 12.012 811 
142847.875 485918.312 5.93 874 
142849.656 485920.875 9.949 1167 
142847.875 485915.688 8.219 1317 
142852.172 485925.438 14.735 1370 
142852.422 485925.875 13.79 1372 
142848.812 485917.438 11.07 1446 
142849.094 485917.938 10.04 1451 
142852.594 485925.719 13.734 1491 
142850.547 485921.156 15.44 1579 
142853.344 485926.781 12.182 1619 
142849.453 485917.75 9.773 1670 
142852.281 485924 12.422 1707 
142848.109 485914.469 13.211 1762 
142852.734 485923.938 9.563 1813 
142853.406 485924.75 9.486 1927 
142849.562 485916 6.435 1978 
142849.656 485916.219 6.316 1979 
142851.906 485921.969 16.762 2008 
142853.188 485924.188 11.7 2017 
142854.219 485926.375 11.661 2028 
142855.188 485928.25 10.022 2034 
142853.625 485924.688 12.646 2124 
142855.312 485927.938 9.957 2135 
142850.953 485918.656 16.326 2188 
142851.719 485919.031 3.605 2196 
142853.781 485924.312 12.638 2224 
142850.766 485917.656 15.329 2285 
142853.25 485922.219 8.115 2321 
142852.609 485919.531 3.284 2543 
142852.672 485919.812 4.98 2544 
142852.922 485920.281 4.314 2547 
142853.047 485920.5 4.04 2551 
142853.312 485920.938 2.368 2558 
142854.391 485923.469 5.077 2580 
142856.016 485927.312 9.487 2603 
142849.75 485913.344 9.948 2653 
142850.406 485915.156 14.549 2665 
142851.094 485916.156 9.603 2671 
142856.25 485927.5 13.734 2763 
142850.062 485913.375 9.693 2808 
142850.891 485915.688 15.478 2820 
142851.297 485915.969 9.574 2824 
142852.766 485918.438 2.672 2833 
142853.484 485920.219 5.669 2844 
142856.141 485926.594 13.271 2892 
142851.016 485915.031 10.154 2952 
142854.484 485922.406 9.929 3005 
142855.766 485925.031 8.865 3032 
142855.969 485925.531 9.626 3037 
142856.219 485926.25 11.62 3040 
142851.844 485915.812 5.796 3100 
142852.625 485917.25 3.653 3116 
142851.109 485914.031 10.096 3215 
142852.188 485915.875 5.474 3234 
142854.141 485920.125 6.677 3269 
142851.578 485914.094 8.713 3488 
142851.594 485914.438 11.768 3489 
142857.359 485926.594 11.261 3558 
142851.781 485913.969 9.101 3618 
142854.297 485919.219 8.229 3640 
142854.906 485920 3.133 3647 
142856.406 485923.156 2.726 3668 
142856.969 485925.031 9.804 3678 
142856.891 485923.438 2.893 3791 
142851.734 485912.688 11.661 3847 
142857.719 485924.719 4.424 3915 
142858.344 485926.781 12.213 3929 
142851.781 485912.469 12.259 3967 
142852.781 485914.625 12.54 3976 
142853.234 485914.812 4.668 3978 
142855.641 485919.906 4.364 4005 
142856.344 485922.312 13.834 4021 
142857.766 485924.406 4.206 4033 
142857.859 485924.688 5.181 4034 
142857.984 485925.531 10.871 4039 
142854.125 485916.344 7.185 4103 
142858.031 485924.375 4.507 4157 
142856.891 485922.125 13.143 4285 
142853.656 485913.969 5.213 4362 
142854.469 485916.469 12.794 4371 
142854.844 485916.5 8.026 4502 
142853.625 485913.219 6.316 4622 
142854.266 485915.312 14.075 4634 
142856.984 485920.375 6.814 4676 
142855.234 485916.531 12.696 4778 
142857.906 485921.594 6.669 4818 
142859.25 485924.188 3.813 4838 
142859.5 485924.125 4.08 4972 
142854.297 485913.156 8.26 5023 
142856.953 485918.312 3.571 5068 
142855.719 485916.094 14.327 5177 
142860.219 485924.625 4.003 5238 
142858.203 485920.062 7.953 5322 
142858.266 485920.375 10.057 5325 
142859.172 485922.188 8.839 5336 
142859.766 485923.031 10.243 5465 
142858.938 485921.125 12.042 5568 
142859.172 485921.688 12.742 5571 
142860.031 485923.25 10.348 5583 
142857.812 485917.75 7.513 5655 
142857.922 485917.938 7.365 5657 
142859.438 485921.719 13.005 5682 
142857.891 485917.219 7.913 5750 
142856.938 485914.844 10.665 5827 
142858.734 485918.719 11.082 5854 
142858.906 485918.875 12.042 5949 
142859.016 485919.094 11.908 5950 
142857.281 485914.812 11.797 6018 
142858.359 485915.062 7.782 6283 
142859.078 485916.812 9.928 6295 
142859.172 485916.438 9.897 6378 
142859.266 485916.719 10.528 6380 
142860.547 485919.875 15.382 6398 
142859.719 485916.406 10.941 6549 
142847.766 485923 9.935 7847 
142847.984 485923 9.673 7938 
142847.984 485922.719 10.003 7940 
142849.109 485913 10.274 8194 
142848.766 485922.625 12.719 8229 
142848.906 485922.531 8.825 8230 
142848.875 485920.531 12.557 8247 
142849.062 485921.094 11.314 8343 
142849.109 485920.781 10.732 8345 
142849.281 485917.312 10.741 8368 
142850.438 485915.75 10.854 8786 
142850.344 485914.875 15.312 8791 
142850.516 485924.906 4.59 8845 
142850.516 485916.688 15.685 8878 
142850.516 485916.438 16.106 8879 
142851.156 485915.438 9.801 9011 
142851.172 485914.938 9.944 9014 
142851.203 485912.625 12.246 9036 
142851.172 485924.562 3.896 9094 
142851.375 485916.5 9.222 9142 
142851.516 485914.625 8.14 9157 
142851.484 485914.156 9.644 9162 
142851.703 485915.219 7.281 9284 
142851.562 485914.094 12.343 9298 
142851.406 485918.781 16.99 9406 
142851.938 485915.312 6.909 9426 
142851.938 485914.844 7.855 9429 
142852.125 485919.156 6.076 9515 
142852.281 485914.719 7.94 9542 
142852.344 485920.875 4.99 9620 
142852.375 485914.719 12.437 9653 
142852.078 485921.938 16.901 9728 
142852.094 485921.688 16.738 9731 
142852.688 485919.688 3.259 9742 
142852.828 485916.25 3.878 9767 
142852.969 485920.906 1.619 9852 
142853.031 485920.312 0.727 9857 
142853.047 485918.781 2.322 9870 
142853.047 485918.5 2.654 9873 
142852.797 485915.625 13.233 9897 
142853.172 485914.125 5.282 9902 
142852.703 485925.125 13.102 9964 
142852.719 485924.625 13.408 9968 
142853.031 485920.562 10.444 9987 
142853.406 485919.781 1.297 9993 
142853.016 485918.5 13.843 10005 
142853.562 485912.812 6.49 10045 
142853.031 485924.469 12.222 10113 
142853.125 485924.406 9.83 10114 
142853.219 485923.312 8.767 10121 
142853.734 485912.812 8.68 10197 
142853.219 485925.375 10.938 10251 
142853.188 485924.688 12.493 10261 
142853.219 485924.375 12.056 10263 
142853.625 485915.25 13.268 10316 
142853.828 485914.562 8.837 10321 
142853.469 485924.25 12.489 10398 
142853.859 485920.531 7.046 10418 
142853.891 485915.406 13.198 10457 
142854.359 485921.469 1.515 10539 
142854.609 485913.531 5.28 10584 
142854.422 485923.25 4.738 10648 
142854.656 485916.219 13.356 10825 
142854.922 485915.812 14.552 10944 
142855.188 485925.469 11.239 11106 
142855.234 485925.094 15.466 11230 
142855.406 485924.688 11.309 11234 
142855.547 485924.594 7.566 11235 
142855.656 485926.812 9 11331 
142855.812 485926.781 14.011 11473 
142855.875 485926.469 12.479 11475 
142855.969 485925.906 10.582 11479 
142856.406 485923.062 2.513 11497 
142856.812 485914.875 10.256 11674 
142856.812 485914.625 10.29 11675 
142856.312 485927 12.881 11711 
142856.984 485913.781 11.925 11789 
142857.078 485926.312 10.809 11955 
142857.156 485925.219 10.034 11960 
142857.484 485920.906 7.042 11989 
142857.484 485920.125 8.101 11997 
142857.375 485917.938 14.131 12019 
142857.641 485922.719 12.671 12225 
142857.891 485920 9.469 12251 
142858.062 485918.094 7.567 12263 
142857.828 485925.312 10.983 12342 
142858.078 485924.875 4.814 12345 
142858.078 485918.031 14.334 12385 
142858.391 485925.094 5.214 12451 
142858.438 485920.469 10.498 12480 
142858.375 485925.344 11.791 12578 
142858.625 485925.188 5.397 12579 
142858.703 485919.312 10.957 12618 
142858.891 485924.25 4.536 12700 
142858.859 485921.969 8.644 12721 
142859.078 485916.719 9.762 12764 
142859.391 485926.875 5.843 12896 
142859.609 485923.906 4.064 12914 
142859.375 485922.031 13.003 12932 
142859.531 485918.594 13.244 12947 
142859.859 485924.125 4.265 13018 
142860.125 485923.312 10.954 13229 
142860.25 485920.875 10.687 13247 
142853.422 485921.156 -3.612 14030 

136 7
17 14
26 25
32 30
180 35
161 38
41 40
185 43
49 45
51 47
162 52
140 55
196 71
82 75
209 84
182 92
96 97
204 102
110 109
197 113
116 115
219 119
119 121
125 124
125 126
6 129
132 131
50 137
50 138
68 145
149 146
150 152
27 155
27 156
38 157
161 162
165 166
177 171
23 172
171 176
177 180
64 181
178 182
195 188
197 198
72 202
110 208
103 213
212 215
97 221
28 177
180 31
159 42
46 135
39 53
55 134
140 139
66 147
154 78
79 164
89 94
91 170
93 203
20 133
1 4
65 49
145 140
145 62
51 143
74 141
33 148
150 144
65 68
63 60
60 149
149 150
52 39
160 168
42 41
37 173
172 175
89 186
54 193
59 194
199 54
196 73
113 117
206 87
109 112
210 83
203 95
86 210
207 103
209 214
207 216
219 120
218 104
97 224
107 111
105 108
105 225
6 125
4 8
132 3
142 136
11 132
165 17
171 165
23 24
29 19
41 153
137 36
160 159
46 50
139 51
191 192
199 48
168 161
57 58
181 56
61 158
201 67
144 65
154 163
72 209
78 178
210 212
98 174
203 218
107 222
223 211
109 219
119 123
131 130
10 11
133 15
131 128
20 16
26 12
134 22
11 9
49 127
5 0
136 2
138 33
5 1
139 46
142 5
55 66
34 10
34 26
153 6
151 20
66 154
68 74
74 77
38 34
61 63
159 142
167 18
39 151
166 27
28 21
173 23
162 61
158 79
17 13
79 88
88 91
37 28
153 37
181 167
63 85
160 183
53 64
178 89
98 179
88 184
42 185
64 69
91 98
186 169
85 90
32 29
168 70
186 187
70 80
188 190
185 191
94 100
192 32
193 189
191 57
183 196
192 44
195 59
58 195
58 201
57 72
87 81
70 99
59 199
80 93
113 200
93 204
80 110
118 197
73 82
211 205
82 86
204 207
201 76
86 217
112 118
212 220
73 96
216 114
213 106
216 116
107 206
106 107
218 105
116 223
96 101
103 226
106 122
227 160
