ply
format ascii 1.0
element vertex 138
property float x
property float y
property float z
property float i
element edge 137
property int vertex1
property int vertex2
end_header

142859.172 485926.656 5.916 230 
142858.078 485926.562 12.159 294 
142855.25 485928.031 10.191 494 
142856.219 485927.188 9.606 502 
142855.172 485927.75 10.076 592 
142858.688 485924.938 5.827 620 
142854.703 485927.719 10.045 682 
142855.484 485927.094 9.29 685 
142855.969 485926.656 9.107 689 
142856.719 485925.812 10.145 699 
142858.344 485924.938 4.785 702 
142856.188 485925.719 9.991 777 
142858.359 485924.438 3.794 786 
142859.594 485922.125 13.356 804 
142855.859 485925.125 10.216 966 
142860.219 485920.5 14.625 1012 
142855.484 485924.688 8.85 1162 
142855.641 485924.688 7.637 1163 
142858.703 485921.656 8.56 1191 
142859.125 485920.812 12.174 1199 
142859.344 485920.812 10.556 1200 
142859.297 485920.594 12.652 1201 
142856.734 485922.312 14.803 1270 
142853.75 485924.906 13.363 1344 
142856.734 485922.156 12.941 1374 
142852.844 485925.344 13.524 1437 
142859.891 485918.812 12.908 1503 
142853.328 485924.438 12.367 1549 
142854.625 485923.781 7.693 1556 
142854.906 485923.781 5.434 1557 
142855.656 485922.312 11.867 1570 
142856.016 485921.469 15.834 1580 
142858.75 485919.531 10.874 1602 
142858.922 485919.312 11.15 1604 
142859.328 485918.906 11.556 1607 
142853.141 485924.156 11.746 1649 
142854.688 485923.531 5.125 1654 
142853.766 485923.312 13.995 1655 
142855.922 485921 16.315 1676 
142853.75 485923.844 6.441 1752 
142855.219 485921.906 10.874 1765 
142855.172 485921.719 12.934 1766 
142855.422 485921.719 11.046 1767 
142854.656 485921.938 11.668 1851 
142855.359 485920.688 16.646 1858 
142857.719 485919.312 9.115 1865 
142850.625 485925.938 5.054 1896 
142853.562 485923.125 5.405 1918 
142853.406 485922.938 8.414 1920 
142855.188 485922.031 1.83 1923 
142854.484 485921.438 12.252 1929 
142855.375 485920 17.409 1944 
142854.562 485921.219 9.901 2029 
142854.922 485921 8.965 2030 
142857.219 485919.062 7.105 2042 
142859.281 485916.938 8.559 2064 
142859.234 485916.75 10.601 2068 
142856.969 485917.781 16.688 2155 
142858.344 485917.469 8.411 2160 
142859.422 485916.219 10.437 2169 
142851.406 485922.594 16.331 2205 
142854.047 485921.125 8.095 2222 
142855.656 485920.031 4.336 2228 
142855.031 485920.188 3.242 2310 
142855.297 485918.75 13.184 2323 
142853.891 485921.062 1.312 2376 
142856.578 485916.875 15.101 2411 
142853.297 485920.781 5.609 2450 
142853.516 485920.562 5.572 2453 
142853.312 485920.375 8.853 2456 
142853.875 485920.156 6.233 2458 
142854.156 485919.719 7.683 2465 
142852.984 485920.781 4.143 2541 
142853.219 485920.594 4.121 2545 
142853.094 485920.5 0.637 2656 
142853.266 485920.281 1.06 2658 
142852.891 485919.625 5.276 2791 
142848.75 485922.719 8.965 2870 
142852.672 485919.75 3.303 2900 
142847.406 485923.406 10.596 2968 
142848.219 485922.75 9.653 2978 
142852.422 485919.562 3.398 2999 
142853.047 485919.125 2.15 3005 
142849.484 485920.562 13.224 3101 
142852.844 485920.406 -3.569 3213 
142849.25 485920.281 10.835 3284 
142848.719 485919.781 10.884 3464 
142850.984 485918.5 3.877 3471 
142850.625 485918.281 8.503 3472 
142852.562 485917 4.129 3481 
142854.219 485914.875 8.908 3492 
142848.578 485919 10.742 3596 
142850.156 485917.719 9.211 3601 
142853.922 485914.312 8.227 3617 
142849.375 485917.938 9.874 3665 
142853.047 485915.125 4.594 3684 
142852.172 485914.969 12.587 3685 
142854.297 485913.656 7.104 3695 
142855.031 485913.188 5.243 3700 
142851.266 485915.562 10.242 3757 
142851.891 485915.125 9.105 3762 
142851.656 485914.906 12.404 3764 
142853.531 485914.031 5.519 3768 
142850.594 485915.188 15.16 3845 
142849.578 485916.344 10.657 3926 
142850.719 485914.875 13.883 3936 
142851.516 485914.844 8.009 3939 
142852.812 485918.062 3.14 4875 
142851.125 485914.875 10.946 4876 
142852.859 485919.438 2.727 4877 
142857.453 485918.406 7.469 4878 
142852.766 485924.875 5.244 4879 
142853.078 485923.906 6.829 4880 
142856.938 485923.375 2.91 4881 
142858.344 485924.719 4.341 4882 
142852.734 485916.344 4.294 4883 
142853.922 485913.844 6.317 4884 
142851.812 485915.438 6.934 4885 
142852.078 485916 5.948 4886 
142852.156 485916.156 5.635 4887 
142851.297 485914.844 9.615 4888 
142851.375 485914.844 9.04 4889 
142851.438 485914.844 8.689 4890 
142851.5 485914.844 8.138 4891 
142851.125 485914.875 10.946 4892 
142852.812 485918.062 3.14 4893 
142849.953 485920.406 11.648 4894 
142850.125 485920.344 11.082 4895 
142850.375 485920.25 10.228 4896 
142851.406 485919.906 6.823 4897 
142857.453 485918.406 7.469 4898 
142858.953 485917 10.103 4899 
142858.906 485917.031 10.026 4900 
142858.031 485920.094 8.938 4901 
142859.344 485920.812 10.621 4902 
142852.984 485924.219 6.311 4903 
142853.281 485924.344 12.192 4904 
142853.234 485924.312 12.076 4905 

4 2
10 5
14 11
16 14
19 21
39 28
45 32
32 33
33 34
47 36
31 38
40 42
65 49
43 50
53 52
58 55
56 59
68 67
71 69
73 72
74 75
77 80
91 86
97 93
101 96
106 100
95 102
7 4
8 7
29 17
27 25
42 30
38 44
47 39
52 40
50 41
52 43
44 51
61 53
70 61
68 70
70 71
75 82
86 85
92 94
84 74
4 6
8 3
9 1
10 0
17 8
19 13
26 15
45 20
27 23
41 22
30 24
33 26
41 31
43 37
48 35
35 60
62 18
62 54
74 46
63 62
66 57
71 64
64 66
78 73
77 79
81 87
93 90
94 91
102 98
92 104
99 101
74 65
105 103
76 68
75 63
16 9
17 16
29 47
82 107
107 89
108 99
82 109
109 78
109 81
110 58
46 111
111 29
112 48
112 77
49 113
113 12
12 114
114 10
89 115
115 95
102 116
116 97
117 106
118 117
89 119
119 118
120 108
121 120
122 121
106 123
123 122
108 124
124 105
107 125
125 76
88 92
76 88
126 83
127 126
128 127
81 129
129 128
62 130
130 110
131 56
110 132
132 131
18 133
133 45
20 134
134 19
111 135
135 112
136 27
35 137
137 136
