ply
format ascii 1.0
element vertex 97
property float x
property float y
property float z
property float i
element edge 95
property int vertex1
property int vertex2
end_header

142910.984 485830.969 4.5 12 
142910.047 485825.344 5.03 56 
142912.375 485825.312 11.08 103 
142909.172 485829.156 15.6 153 
142911.016 485826.625 17.4 177 
142907.078 485826.219 10.43 183 
142912.391 485823.469 16.7 227 
142912.875 485825.969 6.91 237 
142911.891 485827.031 1.64 239 
142910.891 485825.625 3.91 243 
142908.875 485824.031 1.26 264 
142908.547 485820.625 10.92 266 
142915.406 485823.875 11.66 267 
142910.219 485831.656 4.51 322 
142910.859 485830.75 4.85 402 
142910.578 485830.531 5.47 403 
142908.156 485828.594 13.8 416 
142911.047 485830.406 4.31 432 
142910.891 485829.656 3.92 489 
142909.281 485828.219 9.58 527 
142909.547 485828.031 10.45 559 
142909.172 485827.938 0.81 566 
142911.484 485829.312 2 590 
142909.25 485827.531 7.26 607 
142910.391 485828.062 3.93 644 
142909.969 485827.156 8.03 724 
142910.453 485827.656 -0.02 726 
142911.875 485827.969 6.75 783 
142911.156 485827.531 2.97 790 
142910.688 485827.094 6.88 792 
142912.344 485828.156 7.91 815 
142911.203 485826.812 12.72 874 
142911.078 485826.969 -0.52 885 
142911.266 485826.812 2.44 937 
142910.891 485826.562 0.67 940 
142909.891 485825.719 5.42 943 
142912.391 485827.312 2.02 979 
142911.516 485826.625 4.62 987 
142911.328 485826.5 3.91 988 
142911.047 485826.375 0.42 993 
142910.562 485825.906 4.59 995 
142911.781 485826.688 4.47 1035 
142910.344 485825.594 4.92 1049 
142912.109 485826.344 12.56 1085 
142911.312 485825.938 2.64 1100 
142911.25 485825.938 -0.28 1104 
142912.344 485826.312 10.97 1148 
142911.562 485825.781 8.42 1156 
142909.016 485823.875 7.5 1186 
142911.328 485825.281 3.24 1219 
142912.906 485826.281 11.4 1258 
142912.047 485825.625 10.3 1266 
142912.641 485826.281 0.68 1267 
142913.312 485826.188 7.87 1316 
142912.172 485825.344 7.18 1322 
142910.281 485823.844 11.19 1335 
142913.297 485825.875 7.5 1361 
142911.328 485823.938 12.41 1430 
142913.516 485825.531 7.79 1460 
142910.688 485823.312 11.92 1480 
142910.188 485822.938 12.28 1482 
142912.141 485824.125 5.82 1520 
142912.016 485823.625 14.81 1557 
142909.047 485821.5 9.4 1580 
142912.281 485823.25 15.9 1635 
142912.375 485823.312 14.41 1636 
142912.656 485822.625 9.33 1751 
142912.25 485822.188 9.02 1798 
142911.891 485821.438 10.36 1825 
142912.25 485821.469 7.2 1863 
142911.797 485821.062 10.89 1864 
142912.609 485821.375 7.98 1890 
142911.016 485820.062 11.73 1901 
142913.047 485820.844 8.1 1969 
142911.016 485826.844 -4.41 2029 
142910.688 485826.5 -4.06 2032 
142910.922 485826.312 -1.54 2034 
142910.688 485825.312 4.135 2037 
142911.5 485826.719 6.023 2038 
142911.922 485827.438 6.966 2039 
142911.984 485826.531 8.633 2040 
142911.656 485825.25 10.522 2041 
142911.531 485823.312 13.165 2042 
142911.156 485826.094 1.037 2043 
142911.109 485826.125 0.479 2044 
142911.438 485826.562 4.043 2045 
142912.344 485828.156 7.909 2046 
142911.922 485827.438 6.966 2047 
142912.031 485825.781 10.059 2048 
142911.328 485826.75 12.527 2049 
142911.344 485826.75 12.501 2050 
142911.438 485824.406 11.75 2051 
142911.531 485823.312 13.165 2052 
142912.141 485823.312 14.067 2053 
142911.516 485826.469 6.657 2054 
142912.031 485824.281 5.494 2055 
142911.016 485830.844 4.458 2056 

17 14
14 15
39 34
42 35
38 37
45 39
46 50
56 53
7 54
56 58
68 70
74 75
19 20
33 28
37 27
76 32
8 36
44 38
44 9
9 40
51 46
45 52
7 56
51 2
62 64
69 67
75 76
28 18
76 45
0 13
16 3
19 16
25 19
26 22
26 21
29 23
28 24
32 26
37 29
34 8
1 5
43 4
45 10
41 7
48 55
59 60
48 63
63 11
64 6
61 66
56 12
70 72
33 49
44 33
42 48
18 0
49 77
77 1
77 78
78 25
78 79
79 80
46 43
80 81
81 59
82 62
69 73
83 44
76 84
84 83
38 85
85 41
86 30
79 87
87 86
80 88
88 51
89 31
46 90
90 89
81 91
91 57
59 92
92 82
82 93
93 65
78 94
94 47
49 95
95 61
61 69
61 71
67 68
0 96
96 17
