ply
format ascii 1.0
element vertex 159
property float x
property float y
property float z
property float i
element edge 158
property int vertex1
property int vertex2
end_header

142914.312 485828.969 12.603 974 
142914.484 485828.688 13.605 978 
142911.766 485831.75 5.444 1027 
142912.734 485829.875 10.383 1123 
142915.016 485828.219 6.403 1129 
142910.484 485832.156 4.614 1188 
142911.016 485831.062 4.42 1285 
142911.109 485830.5 4.219 1380 
142912.859 485827.625 14.659 1416 
142914.922 485825.906 10.01 1525 
142911.656 485828.75 8.443 1606 
142912.875 485826.812 14.901 1635 
142915.469 485824.812 11.677 1653 
142911.391 485828.969 3.588 1701 
142908.344 485830.312 11.738 1812 
142910.859 485827.5 15.709 1847 
142912.219 485826.562 13.091 1851 
142909.062 485829.281 11.908 1923 
142914.047 485825.844 1.873 1939 
142913.5 485825.656 7.617 1955 
142911.219 485827.938 2.84 2031 
142912.094 485827.25 1.624 2038 
142911.406 485826.594 12.63 2071 
142911.781 485826.375 11.472 2072 
142911.766 485826.375 6.612 2165 
142912.297 485825.438 10.532 2184 
142912.438 485825.25 10.905 2186 
142911.328 485826.812 2.459 2254 
142914.938 485821.594 14.936 2440 
142911.094 485826.469 0.003 2477 
142911.094 485826.375 0.782 2481 
142911.156 485826.25 1.448 2486 
142914.734 485821.781 11.06 2545 
142908.344 485828.281 1.368 2571 
142912.188 485824.219 5.424 2609 
142911.359 485823.938 14.282 2623 
142914.359 485821.594 10.56 2646 
142914.656 485820.875 14.255 2668 
142912.188 485823.625 6.289 2721 
142912.969 485822.531 9.423 2736 
142913.219 485822.219 10.15 2745 
142910.984 485823.75 11.584 2822 
142912.438 485822.844 7.906 2827 
142911.609 485822.938 13.512 2835 
142907.25 485827 9.873 2894 
142911.656 485822.375 14.35 2924 
142912.203 485821.875 9.483 2996 
142909.5 485824.219 6.944 3051 
142907.953 485824.688 14.854 3057 
142909.141 485823.625 7.481 3214 
142910.391 485822.75 5.096 3216 
142912.297 485820.281 11.106 3244 
142907.906 485824.094 8.107 3288 
142907.469 485823.938 8.892 3376 
142909.031 485822.594 7.997 3389 
142907.406 485823.312 11.662 3474 
142907.656 485823.094 11.659 3475 
142908.672 485821.969 13.284 3482 
142907.766 485822.75 9.994 3551 
142907.188 485822.594 11.032 3623 
142906.781 485822.438 11.654 3685 
142908.734 485820.688 11.157 3696 
142907.297 485821.312 10.358 3813 
142908.047 485820.094 9.58 3879 
142906.688 485820.25 10.657 4173 
142907.375 485824.25 9.423 4723 
142911.422 485819.875 11.139 4784 
142911.328 485820.188 12.791 4791 
142908.484 485824.531 14.844 4907 
142908.422 485824.688 15.317 4911 
142912.188 485820.625 10.637 5026 
142912.047 485820.812 10.94 5027 
142911.703 485821.625 13.779 5035 
142912.531 485820.094 6.507 5094 
142911.859 485821.969 14.8 5126 
142910.594 485823.219 12.189 5129 
142911.438 485822.531 14.971 5132 
142910.281 485824.062 15.7 5138 
142911.469 485822.875 13.94 5213 
142912.859 485821.094 7.993 5284 
142911.609 485823.438 14.175 5304 
142911.469 485823.625 14.441 5305 
142910.953 485824.406 15.59 5311 
142913.766 485820.75 9.734 5380 
142911.641 485824.031 14.894 5408 
142907.906 485828.281 11.651 5426 
142912.281 485823.625 14.754 5501 
142912.031 485823.875 14.133 5502 
142911.156 485824.688 11.884 5503 
142913.344 485822.25 10.062 5579 
142910.438 485825.219 5.057 5587 
142911.484 485824.562 10.293 5592 
142914.781 485821.656 13.655 5684 
142911.578 485825.156 9.745 5693 
142909.422 485827.938 10.436 5706 
142910.938 485826.844 16.791 5715 
142909.5 485828.625 16.849 5732 
142910.969 485825.75 3.654 5787 
142910.062 485827.438 8.312 5808 
142909.797 485827.938 9.482 5814 
142911.234 485826.781 14.381 5820 
142910.75 485827.594 16.217 5834 
142908.781 485829.406 11.285 5836 
142911.734 485825.812 8.237 5893 
142911.328 485826.969 13.442 5923 
142910.844 485827.875 15.887 5932 
142911.328 485826.062 2.827 5990 
142911.844 485826.156 8.622 6002 
142912.625 485825.688 12.553 6010 
142911.375 485827.406 13.66 6025 
142911.828 485826.312 4.116 6082 
142913.031 485826.375 16.601 6108 
142910.891 485827.469 -0.299 6171 
142911.922 485826.781 4.357 6176 
142911.031 485827.75 3.3 6180 
142913.234 485827.062 15.88 6294 
142913.047 485827.562 14.209 6367 
142916.172 485824.312 13.272 6415 
142912.312 485828.406 7.73 6428 
142913.422 485828 15.567 6442 
142913.844 485826.312 1.462 6478 
142912.797 485829.094 9.558 6595 
142914.047 485828.031 13.336 6597 
142915.594 485826.531 2.625 6782 
142911.047 485826.594 -0.696 7714 
142910.75 485826.688 -3.935 7715 
142910.547 485826.375 -4.071 7719 
142912.453 485826.438 0.383 7721 
142912.266 485826.844 1.004 7722 
142912.703 485822.688 8.665 7723 
142912.453 485821.656 9.651 7724 
142911.391 485826.031 3.885 7725 
142912.344 485826.594 13.187 7726 
142911.391 485824.344 13.389 7727 
142907.719 485822.938 10.827 7728 
142912.609 485826.438 0.506 7729 
142913.094 485825.75 6.716 7730 
142912.172 485825.906 4.663 7731 
142911.828 485825.969 3.906 7732 
142911.75 485825.969 3.731 7733 
142914.344 485825.812 9.003 7734 
142914.156 485821.906 12.125 7735 
142911.328 485820.188 12.791 7736 
142911.484 485820.406 12.366 7737 
142911.641 485820.594 11.945 7738 
142911.812 485820.812 11.444 7739 
142911.625 485821.312 13.568 7740 
142911.484 485820.75 13.184 7741 
142911.328 485820.188 12.791 7742 
142912.031 485827.188 5.229 7743 
142912.547 485828.719 8.608 7744 
142911.578 485825.156 9.745 7745 
142912.5 485826.688 13.729 7746 
142912.391 485826.625 13.386 7747 
142911.359 485824.406 13.142 7748 
142910.656 485825.375 4.8 7749 
142909.453 485824.156 7.004 7750 
142911.125 485829.156 3.455 7751 
142911.031 485830.875 4.362 7752 

116 8
120 18
124 29
29 30
30 31
36 32
81 35
89 40
39 46
68 48
70 51
52 53
56 55
70 71
43 78
80 81
80 87
93 91
15 101
15 105
103 107
104 109
110 113
20 114
126 125
102 17
87 86
92 28
89 36
39 89
41 75
45 76
45 74
52 65
70 66
42 79
43 80
91 88
97 34
104 100
22 104
110 24
27 20
121 3
0 122
0 1
6 5
7 2
118 10
12 117
20 13
102 14
112 33
34 38
98 44
91 41
38 42
78 45
90 47
68 69
90 50
62 64
54 63
59 60
58 57
47 52
88 68
84 82
39 83
92 37
100 95
98 99
22 96
100 15
99 102
25 26
25 108
110 98
27 97
24 103
23 16
9 12
122 116
120 123
1 119
121 0
31 4
126 124
106 27
25 23
47 54
58 62
124 127
127 112
127 128
128 21
128 106
42 129
129 39
129 130
130 70
97 131
131 110
113 93
23 132
132 22
133 84
133 77
58 134
134 56
134 59
127 135
135 120
136 19
137 136
138 137
106 139
139 138
19 140
140 9
38 73
89 141
141 92
142 67
143 142
144 143
130 145
145 144
146 72
147 146
67 148
148 147
113 149
149 118
118 150
150 121
93 151
151 25
152 11
132 153
153 152
11 111
11 115
41 43
88 154
154 133
99 85
99 94
131 155
155 90
54 61
47 156
156 49
49 58
20 157
157 6
6 158
158 7
